<?xml version="1.0" encoding="UTF-8"?>
<svg version="1.1" viewBox="0 0 2048 2048" width="168" height="168" xmlns="http://www.w3.org/2000/svg">
<path transform="translate(0)" d="m0 0h2048v2048h-2048z" fill="#FDFDFD"/>
<path transform="translate(891,371)" d="m0 0h5l2 9 2 6 7-8h3v3l-3 4h-2l1 4v-2h3v2l-3 3h4l1-2h15v3l4-1 7-2 2-2 17-2h11l6-1v-2l20 2 163 9 28 4 31 7 16 5 7 2 5 4 10 15 6 11 9 11 8 10 8 16 5 16 4 19 2 7-4 8-1 3-1 48v48l3 5 1 1-1 7-5 2-1 120-1 52-1 155-2 128-1 111v44l1 243 1 66 1 152 1 70 2 87v29l-1 19-3 16-5 12-10 14-11 12-14 11-16 10-22 10-25 8-36 8-30 5-46 5-15 1h-53l-39-3-43-5-30-5-34-8-25-9-16-8-16-10-16-13-12-12-7-10-4-9-2-14v-92l1-332-1-858-6-1-4-4v-5l8-4 1-20v-81l-4-8 2-5 2-12 1-2 2-31v-12l5-16 6-8 4-4 7-1 6-5 9-21 3-3h5v3l4-4 5 1h8l25-4 16-4 2-3 2 2 14-2 2-1 2-3 1 2h12v-6l-1-2h-3z" fill="#252425"/>
<path transform="translate(942,430)" d="m0 0h15l3 7 8 4 8 2 3 1v2l5 1 2 1v3h2l3 6-2 4-4 5-5 5-1 4v8l2 2 2 6 2 13h2l5 9 1 7-1 24-2 12h-2v11l-4 7h-2v2h-2l-2 4-10 9-5 5 2 4 3 2-1 5-7 2-15 1h-24l-3 2v2h21l10 1h11v2l8-1 9 3 5 5 1 13-2 20-1 4-2 22-2 21v28l-1 25-2 43v58l-1 16v35l1 3 18 2 12 3h7l4-2h6l2 3 8-1 8 1 5 5 2 4v3h2l3 7 2 1h10l9-4 3-4v-8l-1-9-1-14v-29l2-46-1-48v-92l-1-16-2-9-3-13-1-10v-11l3-6 6-2 6-1 25-1 3-1h14l11-2 3-1v-3l-11 1-6-1h-12l-17-2-7-2-4-3-1-8-7-2-3-2v-2l-4-2-3-10v-25l-1-9 1-6-1-18 1-4 1-12 4-5 4-2 2-4v-9h-2l-1-4 2-7v-2l-4-2-1-3h-2l-2-5 1-5 3-2 16-2h16l29 1 21 1 12 1 2 3 2 21 11 2h12l2-7v-16h1v-13l2-2 1 3 1 15-2 32-5 1-7-1v-2l-18 2h-3l4 5 10 4 1 3 4-2 7-2v-3l4-1 1 3v21l-4 52-2 6-3 3-5 1-2 14-5 6-6 4-5 9h2l2 4v4h2l2 6 1 14 4 16 3 16 2 22 4 21 2 11 1 15 1 11v13l1 11v17l1 19v76l4 22-1 2 4 1 9 2v-4h-5l-1-4 5-6 7 1 4 5-1 5-5 2v2l-7 2v2l-2 1-3 36h-2v5l-2 3 4-2v8l-1 2 3 1 1 10-3 29-4 36-4 23-3 15-1 8-2 15v12l-2 24-2 25-1 15-1 9-2 24-4 27-2 13-2 11-1 9-9 32-5 13-1 14-2 7v8l-3 12-2 25-1 20v16l-1 26-2 8-1 13-4 9-5 3-1 2h-6l-7-5v-3h-3l-4-11-3-10-1-4-3-22v-17l-1-5-1-34-2-19-1-20v-12l-2-18-2-12-2-17-3-15-1-14-1-5-1-38v-26l-1-13v-14l-1-5v-69l-1-9-4-23-2-5-2-11-1-7-3-13-3-9-1-13-1-8-5-1-3-2-10-2-4-5 1-8h-17v5l-2 2-10 1-13-4-9-5-2-2-1-5h-20l1 19-2 16-9 24-3 10-3 16-2 36v74l1 9v17l2 42-1 11-2 10-1 15-2 16-2 15-3 21-3 12-4 19v8l-7 14-3 17-1 3v9l1 9 4 14 1 5v16l-2 9-3 6-3 1-1 3-6-1v2l-3 1-1-4 1-2-5-1-3-6-1-5v-10l1-8v-16l3-17-2-18-3-13-5-24-4-13-2-7-5-14-4-18-1-15-4-29-3-10-3-31v-9l-2-15-4-42-2-22-5-31-2-16-3-13v-9l-1-9-1-21-1-5v-22l-1-11 2-5 1-1-13-2-8-3-5-3 1-24 4-9 5-4h3v-2l13-5 3-6 1-4 2-12v-22l-1-15 2-23v-45l1-18v-14l1-22 4-14 4-10 2-8 4-8v-20l4-12 1-10 1-7 4-9 2-6 1-7 4-5-5-5v-2l-2-1-1-3-6-4-12-9-5-6-5-9v-63l2-22 9-3 8-3 13-3 3-3 2-5 1-22 2-4 1-3 6-4 6-2h17v-2z" fill="#515051"/>
<path transform="translate(1193,965)" d="m0 0 2 4-1 3 3 1 1 10-3 29-4 36-4 23-3 15-1 8-2 15v12l-2 24-2 25-1 15-1 9-2 24-4 27-2 13-2 11-1 9-9 32-5 13-1 14-2 7v8l-3 12-2 25-1 20v16l-1 26-2 8-1 13-4 9-5 3-1 2h-6l-7-5v-3h-3l-4-11-3-10-1-4-3-22v-17l-1-5-1-34-2-19-1-20v-12l-2-18-2-12-2-17-3-15-1-14-1-5-1-38v-26l-1-13v-14l-1-5v-69l-1-9-4-23-2-5-2-11-1-7-3-13-3-9-1-13-1-8-5-1-3-2-10-2-1-2 13 2 18 1 5 1h19v-2l2-1h11l3 1h51l20-1 6-1z" fill="#525152"/>
<path transform="translate(942,430)" d="m0 0h15l3 7 8 4 8 2 3 1v2l5 1 2 1v3h2l3 6-2 4-4 5-5 5-1 4v8l2 2 2 6 2 13h2l5 9 1 7-1 24-2 12h-2v11l-4 7h-2v2h-2l-2 4-10 9-5 5 2 4 3 2-1 5-7 2-15 1h-24l-3 2v2h21l10 1h11v2l8-1 9 3 5 5 1 13-2 20-1 4-2 22-2 21v28l-1 25-2 43v58l-1 16v35l1 3 18 2 12 3h7l6-2-6 6-9-1-12-3-5-1-20-1-44-1 4-2 5-1v-2l4-3 3-8 1-17 2-12 2-9 2-17 1-18 4-28 1-14 1-8 1-32 3-21v-14l-1-5v-10l2-7 1-19 1-6 3-11 2-17-2-10-4-3-7-1h-13l-15 2-6 1-3 9-2 8-3 19-3 7-3 15 2 6-1 8-5 8-5 13-4 7-2 18-1 16-1 8 1 26 2 27 2 20 3 14 1 19 2 12 1 19-1 5 6 4 11 2v3h-63l-10 1 2-2 11-4 3-6 1-4 2-12v-22l-1-15 2-23v-45l1-18v-14l1-22 4-14 4-10 2-8 4-8v-20l4-12 1-10 1-7 4-9 2-6 1-7 4-5-5-5v-2l-2-1-1-3-6-4-12-9-5-6-5-9v-63l2-22 9-3 8-3 13-3 3-3 2-5 1-22 2-4 1-3 6-4 6-2h17v-2z" fill="#525152"/>
<path transform="translate(976,944)" d="m0 0 5 1 6 5 6 3v7l10 4 12 2h7l3-8 7-2 12 1 19-3 11 1 1 1 17 1 11 3h8 3v3l-7 1-4 2-2-1h-41l-3-1-14-1 1 10-3-3 1-8h-17v5l-2 2-10 1-13-4-9-5-2-2-1-5h-20l1 19-2 16-9 24-3 10-3 16-2 36v74l1 9v17l2 42-1 11-2 10-1 15-2 16-2 15-3 21-3 12-4 19v8l-7 14-3 17-1 3v9l1 9 4 14 1 5v16l-2 9-3 6-3 1-1 3-6-1v2l-3 1-1-4 1-2-5-1-3-6-1-5v-10l1-8v-16l3-17-2-18-3-13-5-24-4-13-2-7-5-14-4-18-1-15-4-29-3-10-3-31v-9l-2-15-4-42-2-22-5-31-2-16-3-13v-9l-1-9-1-21-1-5v-22l-1-11 2-5 1-1-13-2v-1h54l33-1 29-2 16-4z" fill="#525152"/>
<path transform="translate(1110,614)" d="m0 0 5 1h18l5 3 2 5 1 21 3 24 3 17 2 12 3 7 4 15 3 13 1 12 1 9 1 16-1 7-1 22-2 12-4 52v14l-3 29 1 11-1 5-5 8-6 14v15l-2 2h30l16-1 6-3 3-14 1-8v-10l3-9 1-2 5 1v-4h-5l-1-4 5-6 7 1 4 5-1 5-5 2v2l-7 2v2l-2 1-3 36h-2v5l-2 3 2 1-1 8-6 2-20 1h-51l-3-1h-13v2l-19 1-5-1-26-2-5-2-1-2v-8h14l3 1h41l4 1 2-2 7-1v-8l1-5v-3h2l-3-5-6-6v-2h-2l-5-6 2-1 9 3-1-7-6-13-3-12-1-7v-60l-2-21-2-4-2-27-1-15 1-8-1-14v-30l-1-25-2-23-5-27v-8l4-10 6-2zm83 348h2v3h-2z" fill="#6B6C6D"/>
<path transform="translate(936,616)" d="m0 0h13l7 1 5 4 2 10-3 22-3 11v9l-1 11-2 8v13l1 1v15l-3 23-1 29-2 19-2 17-3 26v9l-3 21-2 10-1 4-1 17-3 8-3 3h-2v2l-9 3h-9v-1l-10-2-7-5 1-5-1-19-2-15-1-16-3-16-3-29-2-44 2-21 1-11 2-10 6-12 4-10 4-7-1-7-1-5 3-15 4-10 3-21 4-9 1-2 10-3z" fill="#6B6C6D"/>
<path transform="translate(1e3 68)" d="m0 0h2l5 8 12 11 7 2 3 3 4 1 3 5 10 13 8 14 2 2 11 4 2 3-10-3-3-1 10 23 8 18 6 14 6 10 12 25 8 17 12 21 15 28 14 23 14 21 17 25 7 7 10 8 11 9v2l4 2 12 12 7 11 1 4-8-6-9-9-8-7-9-8-15-10-4-1-10 6-2 2-1 10-1 2h-2l-2-12h-2l1-4h3v-4l-3-1-2-4 2-5-5-13v-7l3 4 4 12 4 1 1-2 4 2 5 2-7-8-12-11-4-5-7-14-13-21-10-16-15-28-32-64-13-28-16-34-10-18-8-11-1-3-2 6 1 2-8 16-15 38-11 24-5 11-9 24-5 15-6 22-8 19-8 15-5 13-2 8v9l-6 16-10 20-6 10-9 17-3 5 16-2 21-1h22l-3 2-3 1h-15l-13 2-4 3h-5l-1 2-3-1-2-2h-11l-2-1-1 3-4-1 1-3h2v-2h-3v2l-3-1h2v-3l5-5-2-2-5 6h-2l-1 3-4-9v-7l-4 1 1 6 3 1 1 6-1 2-4 1h-8-2l-3 2-15 2h-2l-9 3-19 4-14 2h-8l-5-1-4 4-2-1 1-2 1-1-3-1h5l5-8 10-10 17-12 31-19 7-6 6-10 9-11 7-8 20-30 18-28 12-21 19-37 12-22 17-38 9-23 4-4-1 4-1 5 11-16 3-9-1-4-12-11-3-4z" fill="#7A7A7B"/>
<path transform="translate(1125,471)" d="m0 0 25 2 14 3 5 3h18l4-1 1 1v9l-4 1-7-1v-2l-18 2h-3l4 5 10 4 1 3 4-2 7-2v-3l4-1 1 3v21l-4 52-2 6-1 2-7 1-3 7-6 8-9 4-6 2-14 2-1-1h-14l-7-1-4 1v-2l-15-5-10-5-2-4-1-12-1-4v-16l-2-12v-24l3-12 3-6 5-3 12-2-3-5-7-4-2-3 1-5 2-2z" fill="#7D7D7E"/>
<path transform="translate(849,912)" d="m0 0h115l20 1 15 3 5 2h6l6-5h4l2 3 8-1 8 1 5 5 4 11 5 9h8l14-2 4-2 4-8 5-3 7 1 11 9 5 3 3 9 2 7v5l-4 1h-8l-12-3-16-1-1-1h-6l-5-1-19 3-13-1-6 2-3 8h-7l-15-3-7-4-1-7-8-4-5-4-4 1-4 5-16 4-29 2-33 1h-32l-23-1-10-3-2-2 1-24 4-9 5-4z" fill="#BD501C"/>
<path transform="translate(859,496)" d="m0 0 15 7 18 2 19 2h6l3 2 18-3 17 2 10 3 4 4 2 1 2 4v17l1 13-4 13h-2l-1 5-8 7-7 3-18 3h-12l-6 4-6 9-3 1v2l-6 1-12-2-12-5-5-5v-2l-5-2-5-3-4-6v-76z" fill="#7D7D7E"/>
<path transform="translate(937,618)" d="m0 0 9 1 6 5v7l-2 7-1 8-5 8-1 7 1 3v21l-1 9 4 21-2 17-2 12-1 23-2 11-3 13-1 9-5 14-2 10-1 3-1 14-3 8-1 9-5 6-4-1-5-10-1-10-2-4-4-33-2-16-5-12-1-19v-12l2-15 3-13 4-10 5-13 5-7v-7l-1-7 6-21v-8l5-21 4-4z" fill="#7E7E7F"/>
<path transform="translate(1107,616)" d="m0 0 19 1 2 12v14l1 14 7 31 1 9 5 13 2 3 1 9h2l3 11 1 21v23l-3 11-2 16-2 3-1 13-4 16-2 6 2 5-5 6-1 9-9 2-1-5 1-3-4-5-2-10-3-24-4-12-2-7-3-13-2-13v-12l-1-8-1-27v-18l1-13 1-14v-24l-3-8v-7l-1-4v-12l5-8z" fill="#7E7E7F"/>
<path transform="translate(1108,612)" d="m0 0 3 2-6 2-11 1-4 1-3 10v10l3 14 3 20 2 40v36l1 8-1 8 2 32 1 9 2 4 2 26v57l2 11 3 8 6 14-1 4-10-2 4 4v2h2l7 8 2 2v3h-2l1 6-1 2h-2l-3-12-1-3-9-6-6-5-7-1-4 2-5 9-4 2-14 2h-8l-5-7-1-7 2 3 2 4 2 1h10l9-4 3-4v-8l-1-9-1-14v-29l2-46-1-48v-92l-1-16-2-9-3-13-1-10v-11l3-6 6-2 6-1 25-1z" fill="#525152"/>
<path transform="translate(1014,119)" d="m0 0 2 1-2 9-6 18-5 11-4 8h-2l-1 5-5 5-4 1-3 7-5 24-10 24-5 16-1 4-5 16-10 19-5 14-2 1-4 7h3l1-3h2l-2 13-4 13-7 12-8 12-7 10-7 12-5 6h-2l-1 3-4-9v-7l-4 1 1 6 3 1 1 6-1 2-4 1h-8-2l-3 2-15 2h-2l-9 3-19 4-14 2h-8l-1-1v-6l6-7 13-9 19-12 20-9 6-1-4-1 1-3 8-7 8-8 12-17 7-7 26-39 6-12 10-14 11-23 12-23 6-16 4-11 3-6h2l1-6 8-18 9-17z" fill="#FDFDFD"/>
<path transform="translate(1259,463)" d="m0 0 5 2 2 2h2v2h3l-1-4 7 6v2l5 3 2 3 5 16 4 19 2 7-4 8-1 3-1 48v48l3 6h-4l-2 2-14-2v-2l-4 1-3-5v-10l-2-3-1-10-2-7-1-8-2-35v-57l-2-20-2-2 1-8 4 1z" fill="#525152"/>
<path transform="translate(986,385)" d="m0 0 28 1 121 7 21 1 28 4 31 7 16 5 7 2v3l-4 1-5-2-12-3-29-2-14-1-29-1-33-2-13-1-4-1h-20l-17-2h-55l-11-2-1-5 1-3h-2l-1-5z" fill="#545354"/>
<path transform="translate(1034,101)" d="m0 0 3 1 9 13 1 4 3 1 8 16 8 18 7 14v4h2v2h2l6 11 5 7 1 4 3 1 18 38 13 23 15 28 14 23 14 21 17 25 7 7 10 8 11 9v2l4 2 12 12 7 11 1 4-8-6-9-9-8-7-9-8-15-10-4-1-10 6-2 2-1 10-1 2h-2l-2-12h-2l1-4h3v-4l-3-1-2-4 2-5-5-13v-7l3 4 4 12 4 1 1-2 4 2 5 2-7-8-12-11-4-5-7-14-13-21-10-16-15-28-32-64-13-28-16-34-10-18-6-8z" fill="#2F2E2F"/>
<path transform="translate(1125,471)" d="m0 0 25 2 14 3 5 3h18l4-1 1 1v9l-4 1-7-1v-2l-18 2h-3l4 5 10 4 1 3 4-2 7-2v-3l4-1 1 7-1-3-6 4-4 2-3 4-5-1-4-6v-2l-5-1-12-2-24-2-26 4-6 4-4 8-2 18 1 10-1 4 1 12v11l4 23 3 2 11 3 2 2 8 1 21 1 15-1 8-2v-2l3-2h4l2-4 4-3-2 4-5 7-9 4-6 2-14 2-1-1h-14l-7-1-4 1v-2l-15-5-10-5-2-4-1-12-1-4v-16l-2-12v-24l3-12 3-6 5-3 12-2-3-5-7-4-2-3 1-5 2-2z" fill="#6C6D6E"/>
<path transform="translate(1180,911)" d="m0 0h8l9 2 1 4-3 7v10l-3 19-3 5-5 2-16 1h-31l2-3v-15l8-18 5-7 10-6z" fill="#BE501C"/>
<path transform="translate(1202,900)" d="m0 0 7 1 4 5-1 5-5 2v2l-7 2v2l-2 1-3 36h-2v5l-2 3 2 1-1 8-6 2-20 1h-51l-3-1h-13v2l-19 1-5-1-26-2-5-2-1-2v-8h14l3 1h41l2 1v3l6-4 12-1 1-1 15-2h31l16-1 6-3 3-14 1-8v-10l3-9 1-2 5 1v-4h-5l-1-4zm-9 62h2v3h-2z" fill="#6B6B6C"/>
<path transform="translate(1e3 128)" d="m0 0 2 1-1 6-14 30-1 4h-2l-2 6-4 11-6 16-16 31-8 16-10 15-8 15-13 19-8 12-9 10-13 18-17 17 6 1v1l-9 1-21 10-17 11-14 10-4 5-1 6-5 1-3 3-2-1 1-2 1-1-3-1h5l5-8 10-10 17-12 31-19 7-6 6-10 9-11 7-8 20-30 18-28 12-21 19-37 12-22 17-38 4-9z" fill="#575657"/>
<path transform="translate(862,498)" d="m0 0 6 2 6 3 18 2 19 2h6l3 2 18-3 17 2 10 3 4 4 2 1 2 4v17l1 13-4 13h-2l-1 5-8 7-7 3-18 3h-12l-6 4-6 9-3 1v2l-6 1-12-2-12-5-5-5v-2l-5-2-5-3v-2l9 3 10 8 11 5 5 1 6-2 4-7 2-6 6-3 20-2 13-2 4-1 2-4 3-5h2l2-5 4-6-1-12-3-8-2-9-1-3-6-2-11-3h-9l-5 1-2 4-4 1-6-4-15-2-8-3-17-2-5-2-5-5-3-2z" fill="#6C6D6E"/>
<path transform="translate(977,225)" d="m0 0h1l-1 8-6 22-8 19-8 15-5 13-2 8v9l-6 16-10 20-6 10-9 17-3 5 16-2 21-1h22l-3 2-3 1h-15l-13 2-4 3h-5l-1 2-3-1-2-2h-11l-2-1-1 3-4-1 1-3h2v-2h-3v2l-3-1h2v-3l5-5-2-4 6-10 9-13 11-17 5-12 3-15 2-5h2v-6l5-10 3-1-1-4 4-10 5-12 7-22 2-5h2l2-7z" fill="#4E4D4E"/>
<path transform="translate(881,1489)" d="m0 0h1l1 30 2 17 1 2 3 22 3 4 2 9 3 7-1 9v6l2 7 2 9-1 5 3 4v10h2v2h4l1-2 10-3 3-10v-13l-1-6v-9l3-17 5-22 4-9 1 3-4 16-2 11-2 10-1 6v18l1 11-2 6-2 9-2 4-4 4-1 5-10 1-6-4-4-7-2-12 1-3v-17l-4-21-2-16-2-5-3-16-2-13-1-24z" fill="#515051"/>
<path transform="translate(1280,1253)" d="m0 0h1l1 243 1 66 1 152 1 70 2 87v29h-1l-1-10-1-43v-11l-1-10-1-32-1-146-1-143z" fill="#6C6C6D"/>
<path transform="translate(1158,339)" d="m0 0 3 4 4 12 4 1 1-2 4 2 7 1-2-3 1-3 9 10 22 18v2l4 2 12 12 7 11 1 4-8-6-9-9-8-7-9-8-15-10-4-1-10 6-2 2-1 10-1 2h-2l-2-12h-2l1-4h3v-4l-3-1-2-4 2-5-5-13z" fill="#575657"/>
<path transform="translate(1101,974)" d="m0 0h11l3 1h58l-4 2h-2v2l-9 7-7 6-1 2-12 3-7-1-3-2v-2h-2l-1-3-6-4-12-6-1-2-7-1z" fill="#6C6D6E"/>
<path transform="translate(1285,668)" d="m0 0h1v95l-1 52-1 155-2 128h-1v-106l1-229 1-2 1-29z" fill="#636364"/>
<path transform="translate(755,503)" d="m0 0 2 4 2 5 1-3 1 4 1 3v8l-2 5-1 6 1 7 3 5-2 5 1 2v11l-2 1v8l3 1 1 6 2 1-1 4-3 3 1 9-4 7h-2v27l-1 4-3 6-5-1-2-3v-5l8-4 1-20v-81l-4-8 2-5z" fill="#585758"/>
<path transform="translate(902,958)" d="m0 0h10l13 1-2 7-6 6h-2v5l-5 5-6 7-3 1-4-3v-6l-4-2-3-9v-6l3-4z" fill="#6C6D6E"/>
<path transform="translate(909,307)" d="m0 0 1 3-9 10-13 18-17 17 6 1v1l-9 1-21 10-17 11-14 10-4 5-1 6-5 1-3 3-2-1 1-2 1-1-3-1h5l5-8 10-10 17-12 31-19 7-6 6-10 9-11 7-8 3-5h4l-1 4h2l2-5z" fill="#383738"/>
<path transform="translate(1091,452)" d="m0 0h32l9 1 8 1 2 2-1 5-3 2-16 3-21-1-9-3-6-4 2-5z" fill="#6C6D6E"/>
<path transform="translate(1017)" d="m0 0h18l7 11 7 10 6 13-1 2-6-8-8-11-8-8-10-7-4 2-4 5-2 9v7l6 12 11 13 7 8 9 10 8 12-1 6-2 3h-2l-3-12-11-14-11-12-12-16-2-4v-14l5-13z" fill="#373637"/>
<path transform="translate(1031,91)" d="m0 0 7 2 3 5 10 13 8 14 2 2 11 4 2 3-10-3-3-1 10 23 8 18 6 14 6 10v2l-3-1-3-7-4-5-2-6-2-1v-3h-2v-2h-2l-4-11-8-16-10-21-2-4-3-3-7-11-3-4h-3l-2-6z" fill="#7B7B7C"/>
<path transform="translate(1063,954)" d="m0 0 11 1 1 1 17 1 11 3h8 3v3l-7 1-4 2-2-1h-41l-3-1-14-1 1 10-3-3 1-8h-18l1-4 7-2 12 1z" fill="#515051"/>
<path transform="translate(1140,965)" d="m0 0h48l4 1-1 6-5 1-15 1h-38l-10-1-6-5 2-2h17z" fill="#FEFEFE"/>
<path transform="translate(1163,1466)" d="m0 0 2 1 3 31v15l-2 15-2 8-9 21-5 5-6 8-10 8h-11l-9-8-6-9-8-16 1-3 5 7 3 6v2h2l4 4v2h2v2l4 2 4 3h8l4-3h3l2-4 9-9 3-6 3-4 4-12 3-11 1-13v-17l-2-13z" fill="#515051"/>
<path transform="translate(1123,473)" d="m0 0 17 1 10 4 1 3h2v3l-7 3h-14l-10 1-13-3-2-1v-2h-3v-6l3-2z" fill="#7E7E7F"/>
<path transform="translate(945,245)" d="m0 0 2 4v-3l2 1-2 5-10 15-6 12-13 19-7 11h-3l-3 5h-2l1-4-3-1 16-24 18-28 4-7 4-2z" fill="#333233"/>
<path transform="translate(864,396)" d="m0 0 4 1 3 1v-2l5 1-1 10-1 4h-2l-1 4-5 2-2 11-2 34-2 17-1 3h-2v-45l1-15 4-9 2-7 1-4-1-1z" fill="#747475"/>
<path transform="translate(1281,538)" d="m0 0h3l1 9v3h2l1 42v22h-1l-1-9-1-3-1 5-2 4-2-2v-25l1-7-1-4-1-3v-8l-1-4v-12l1-7z" fill="#6C6D6E"/>
<path transform="translate(1146,963)" d="m0 0h18l24 1v1l-48 1-8 1h-13v2l4 3 10 1h38l20-1 1-2v3l-6 2-20 1h-51l-3-1h-11l-5 1 4-3 1-5-1-3h3v3l6-4z" fill="#7D7D7E"/>
<path transform="translate(943,433)" d="m0 0 6 1 1 5-3 5 1 3-3 7-2 2-4 1-3 6-2 1h-6v-2l-5-2 2-9 9-9h2l1-6 5-2z" fill="#6C6D6E"/>
<path transform="translate(977,225)" d="m0 0h1l-1 8-6 22-8 19-8 15-5 13-3 12-3 4v2l-4 1 2-12 2-5h2v-6l5-10 3-1-1-4 4-10 5-12 7-22 2-5h2l2-7z" fill="#525152"/>
<path transform="translate(954,1305)" d="m0 0h1l-1 48-1 4-1 17v38l1 21-2 32-1 4v8l-1 8-1 19-5 18-4 9-3 7-1-3 7-18 4-17 2-34 2-23v-26l-1-45 1-17 1-6 1-32z" fill="#525152"/>
<path transform="translate(914,366)" d="m0 0 2 4-2 4 4-2 1-2-1 4-3 7-3 3 3 1-1 2 16-2 21-1h22l-3 2-3 1h-15l-13 2-4 3h-5l-1 2-3-1-2-2h-11l-2-1-1 3-4-1 1-3h2v-2h-3v2l-3-1h2v-3l5-5-2-4z" fill="#5D5C5D"/>
<path transform="translate(1126,265)" d="m0 0 3 4 13 24 14 22 10 15 13 19-1 2-4-4-5-3-8-10-3-3-3-6 2-1-3-5-2-2-6-11-10-17-5-9v-3h-2l-3-7-1-3z" fill="#565556"/>
<path transform="translate(1179,351)" d="m0 0 5 5 11 10 11 9 5 4v2l4 2 12 12 7 11 1 4-8-6-9-9-3-4v-2l-4-2v-2h-2l-12-12v-2l-5-2-6-4-5-6-2-2h2l-2-3z" fill="#525152"/>
<path transform="translate(1176,486)" d="m0 0h5v2h11v18h-1l-1-14-3 2-2 4-10 2-3-3-8-3-4-4v-2l3-1z" fill="#525152"/>
<path transform="translate(1088,965)" d="m0 0h12l2 5-2 4-4 2-13 1-11-4-1-2 2-4 3-1z" fill="#FEFEFE"/>
<path transform="translate(1265,484)" d="m0 0 14 7 8 7v9l3 3 1 8h2l1-2 1 5-2 2-5-5-7-10-1-6-11-7-4-6z" fill="#6C6D6E"/>
<path transform="translate(924,274)" d="m0 0 3 3v-2l2 1-6 11-4 6-1 5-7 11h-3l-3 5h-2l1-4-3-1 16-24z" fill="#504F50"/>
<path transform="translate(932,302)" d="m0 0h6v2l-4 2-3 9-7 9-3 9-3 17-1 10h-1v-18l1-8-3 5h-2l2-5 3-5 6-15 2-6 5-2v-2h2z" fill="#4B4A4B"/>
<path transform="translate(1022)" d="m0 0h13l7 11 7 10 6 13-1 2-6-8-8-11-8-8-10-7z" fill="#353435"/>
<path transform="translate(1034,101)" d="m0 0 3 1 9 13 1 4 3 1 8 16 8 18 6 12-2 1-2-5-2 1-16-34-10-18-6-8z" fill="#494849"/>
<path transform="translate(1057,125)" d="m0 0 4 2 11 4 2 3-10-3-3-1 10 23 8 18 6 14 6 10v2l-3-1-3-7-4-5-2-6-2-1v-3h-2v-2h-2l-1-6 1-3-5-10-8-19z" fill="#605F60"/>
<path transform="translate(898,334)" d="m0 0 2 1-5 11-10 13-5 5-2 4 3 3-5-1v2l-8 5 1-4 2-7-1-5 4 1 3-4v-1l7-2 5-5 4-6z" fill="#403F40"/>
<path transform="translate(1e3 128)" d="m0 0 2 1-1 6-14 30-1 4h-2l-2 6h-3l3-9 16-36z" fill="#505051"/>
<path transform="translate(755,503)" d="m0 0 2 4 2 5 1-3 1 4 1 3v8l-2 5-2 6-2-4-5-11 2-5z" fill="#4C4B4C"/>
<path transform="translate(864,396)" d="m0 0 4 1 3 1v-2l5 1-1 10-1 4h-2l-1 4h-5l-1-4v-9l-1-1z" fill="#69696A"/>
<path transform="translate(1202,900)" d="m0 0 7 1 4 5-1 5-5 2v2l-8 3v-2h2v-2h2v-4h-5l-1-4z" fill="#F6F6F6"/>
<path transform="translate(1283,1787)" d="m0 0h1l1 26 1 9 1 49v29h-1l-1-10-1-43v-11l-1-10-1-32z" fill="#616061"/>
<path transform="translate(933,1541)" d="m0 0 1 3-4 16-2 11-2 10-1 6v17h-3l-1-6v-9l3-17 5-22z" fill="#525152"/>
<path transform="translate(1152,319)" d="m0 0 6 5-1 2 2 4v2l5 5 7 8 5 3 3 3 2 6-4-2-7-7-8-7-6-7-4-9z" fill="#373637"/>
<path transform="translate(864,406)" d="m0 0h1l1 9 2 1-2 1-2 11-1 16-2-4-1-8-1 12-2-4 1-18 4-9z" fill="#676768"/>
<path transform="translate(1137,394)" d="m0 0h19l28 4 18 4v1h-10l-19-2-8-3-28-3z" fill="#78797A"/>
<path transform="translate(909,307)" d="m0 0 1 3-9 10-6 8-4 2-3 2 2-4 2-3-5 3 2-4 8-9 3-5h4l-1 4h2l2-5z" fill="#383738"/>
<path transform="translate(776,429)" d="m0 0h4v2h-2l-1 4-5 6-2 5h-4v2l-3 1-2 2 1-6 4-8 7-7z" fill="#545354"/>
<path transform="translate(1179,358)" d="m0 0 4 2 5 6 9 5 7 8 5 4v2h2l7 8h-3l-9-9-18-13-5-2 2-2-5-4z" fill="#636364"/>
<path transform="translate(954,286)" d="m0 0 1 3-5 13-3 12-3 4v2l-4 1 2-12 2-5h2v-6l5-10z" fill="#565556"/>
<path transform="translate(1189,478)" d="m0 0 3 1v9l-4 1-7-1v-2l-9 1-1-4 2-1 9-1 6-1z" fill="#79797A"/>
<path transform="translate(919,288)" d="m0 0 2 1-2 6-2 4-6 10h-3l-3 5h-2l1-4-3-1 4-6h2l3-3h2l2-4 2-5z" fill="#606061"/>
<path transform="translate(1141,298)" d="m0 0 4 4 8 14 3 5-1 2-2-2-2 3-12-20 1-5z" fill="#302F30"/>
<path transform="translate(1126,265)" d="m0 0 3 4 13 24 9 14-1 2-5-5-9-15-5-9v-3h-2l-3-7-1-3z" fill="#5C5B5C"/>
<path transform="translate(755,609)" d="m0 0 2 4v19l-1 4-3 6-5-1-2-3v-5l8-4z" fill="#605F60"/>
<path transform="translate(1177,487)" d="m0 0 7 1 1 2-3 2v2h2v2l-7 1-10-4v-4z" fill="#252425"/>
<path transform="translate(914,366)" d="m0 0 2 4-2 4 4-2 1-2-1 4-3 7-3 3 3 1-3 1v2l-3 1v-2h-3v2l-3-1h2v-3l5-5-2-4z" fill="#525152"/>
<path transform="translate(758,470)" d="m0 0 2 3v8l1 8-1 3 3-1 1 2 2-2 1 4-8 7-3 1z" fill="#59595A"/>
<path transform="translate(950,283)" d="m0 0 4 1v3l-3 2-4 9-1 6h-2l-1 4v-2l-3 3h-3l4-8h2l1-5 4-11z" fill="#6E6F70"/>
<path transform="translate(1022,909)" d="m0 0h6l1 2 6 1v2l6 2 4 5-1 4-3-6-6-3h-13l-1 2-1-5-4-1 5-2z" fill="#6A696A"/>
<path transform="translate(940,441)" d="m0 0 4 2v6l-2 4-6 1-2-1v-2l-2-1 5-8z" fill="#7E7E7F"/>
<path transform="translate(945,311)" d="m0 0 3 4-1 6-5 14-2 1-1-7 1-8 4-1-1-3z" fill="#3D3C3D"/>
<path transform="translate(1034,101)" d="m0 0 3 1 9 13 1 4 3 1 3 6 1 5 2 7h-2l-8-17-9-14-3-4z" fill="#444445"/>
<path transform="translate(891,371)" d="m0 0h5l2 9 2 6 3-3 1 2-2 3-7 1-16 1 4-5 1 2h12v-6l-1-2h-3z" fill="#707071"/>
<path transform="translate(1e3 68)" d="m0 0h2l5 8 5 5 2 5-2 1-8-7-4-1-1-5z" fill="#8F8F90"/>
<path transform="translate(918,326)" d="m0 0h4l-2 13-3 21h-1v-18l1-8-3 5h-2l2-5 3-5z" fill="#5E5E5F"/>
<path transform="translate(1217,386)" d="m0 0 7 6 8 10 3 6-1 2-10-9 1-2-7-8z" fill="#605F60"/>
<path transform="translate(1100,455)" d="m0 0h14l3 1-1 4-1 1-14-1z" fill="#7E7E7F"/>
<path transform="translate(1163,1466)" d="m0 0 2 1 3 31v15l-2 1-1-6v-17l-2-13z" fill="#525152"/>
<path transform="translate(1281,615)" d="m0 0h2l2 12 1 4-5 2-2-1v-13z" fill="#6C6D6E"/>
<path transform="translate(945,245)" d="m0 0 2 4v-3l2 1-2 5-7 10-3-1v-5l4-2-1-4z" fill="#333334"/>
<path transform="translate(983,209)" d="m0 0 1 3-5 14-3 1-3 7h-2l-1 5-1-2 3-8 4-8 3-7h2z" fill="#6C6D6E"/>
<path transform="translate(939,250)" d="m0 0 2 4-3 2v5l1 3-4 5-2-2-4 4v-4z" fill="#535253"/>
<path transform="translate(1072,166)" d="m0 0 5 5 1 3h2l7 14 4 7v2l-3-1-3-7-4-5-2-6-2-1v-3h-2v-2h-2z" fill="#585758"/>
<path transform="translate(1016,913)" d="m0 0h4l2 5v4l-6 1-4-3 1-4z" fill="#FEFEFE"/>
<path transform="translate(925,361)" d="m0 0 1 4-9 17-2 2h-3l1-3 2-1 2-6 4-7 2-4z" fill="#343334"/>
<path transform="translate(1007,112)" d="m0 0 1 3-2 3-1 5 5-2-1 4-5 6-3-2-2 1 3-9 3-6z" fill="#6F6F70"/>
<path transform="translate(1202,377)" d="m0 0 5 2v2l4 2 7 6 8 10-3 1-8-9v-2l-4-2v-2h-2l-5-5z" fill="#2A292A"/>
<path transform="translate(1026,1134)" d="m0 0 3 1 2 11 4 4-5 6-2-2-1-4v-10z" fill="#525152"/>
<path transform="translate(1103,223)" d="m0 0 3 4 9 17 3 5v2l-3-1v-2h-2l-3-7-7-14z" fill="#5C5B5C"/>
<path transform="translate(909,307)" d="m0 0 1 3-7 8-4-1h-3l4-7h4l-1 4h2l2-5z" fill="#4B4A4B"/>
<path transform="translate(933,265)" d="m0 0 2 3-1 6-2 2-5-1v2l-2-1 1-5 5-3z" fill="#3C3B3C"/>
<path transform="translate(1017)" d="m0 0h5l-5 5-3 4-3 15-1 7h-1v-14l5-13z" fill="#5F5F60"/>
<path transform="translate(1285,508)" d="m0 0 5 2 1 8h2l1-2 1 5-2 2-5-5-3-5-1-4z" fill="#717172"/>
<path transform="translate(881,392)" d="m0 0h6l2 2-7 2-3 1-1 6h-3v-6l-2-2z" fill="#525152"/>
<path transform="translate(1126,265)" d="m0 0 3 4 9 17h-3l-4-6v-3h-2l-3-7-1-3z" fill="#565556"/>
<path transform="translate(1048,74)" d="m0 0 4 4 1 5-3 6h-2l-2-10h2z" fill="#646364"/>
<path transform="translate(890,325)" d="m0 0h2l-4 8-2 1-2 4-5 1 2-5 4-5z" fill="#2F2E2F"/>
<path transform="translate(1169,367)" d="m0 0h3l-1 5-2 2h-3v5h-2v-2h-2l1-4h3v-4l-2-1z" fill="#7B7C7D"/>
<path transform="translate(1065,148)" d="m0 0h2l6 14 1 5-4-4-6-12z" fill="#727273"/>
<path transform="translate(1176,359)" d="m0 0 3 1 5 5 2 3-11-1v-6z" fill="#272627"/>
<path transform="translate(1e3 128)" d="m0 0 2 1-1 6-3 7-1-2-3 1 3-10z" fill="#595859"/>
<path transform="translate(1136,291)" d="m0 0 3 1 2 4v5l-3 1-5-7 1-3z" fill="#393839"/>
<path transform="translate(857,450)" d="m0 0h1l1 20h1v9l-1 3h-2z" fill="#525152"/>
<path transform="translate(932,302)" d="m0 0h6v2l-4 2-2 2h-3l-3 9-2-1 1-8 5-2v-2h2z" fill="#8A8A8A"/>
<path transform="translate(1022,909)" d="m0 0h6l1 3-4 4h-3l-1 2-1-5-4-1 5-2z" fill="#525152"/>
<path transform="translate(915,288)" d="m0 0h2l-1 4-2 5-4 4h-2l-1 3-1-2z" fill="#3E3D3E"/>
<path transform="translate(869,401)" d="m0 0 3 1 1 8-3 3-2-1-1-9z" fill="#FEFEFE"/>
<path transform="translate(1197,913)" d="m0 0 4 1v2h-2l1 3-2 1-1 14h-2l-1-10 3-9z" fill="#575657"/>
<path transform="translate(903,383)" d="m0 0 1 2-2 3-7 1-16 1 4-5 1 2h17v-3z" fill="#656566"/>
<path transform="translate(917,335)" d="m0 0 3 1-3 24h-1v-18z" fill="#6F6F70"/>
<path transform="translate(1249,426)" d="m0 0 4 5-2 6h-2l-2-3v-3l-2-2 3-1z" fill="#444344"/>
<path transform="translate(1057,125)" d="m0 0 4 2 11 4 2 3-10-3h-5z" fill="#666667"/>
<path transform="translate(1034,101)" d="m0 0 3 1 9 13-2 3-7-11-3-4z" fill="#5A595A"/>
<path transform="translate(809,392)" d="m0 0 2 2v6l-5 1-3 3-2-1 1-2 1-1-3-1h5z" fill="#626162"/>
<path transform="translate(1179,351)" d="m0 0 10 10v2l-4-1-6-4 2-1-2-3z" fill="#4B4A4B"/>
<path transform="translate(1045,105)" d="m0 0 5 5 6 10 1 4-4-4-8-13z" fill="#5B5A5B"/>
<path transform="translate(822,380)" d="m0 0m-2 1 2 1-3 5-5 4-2 3h-2l1-4z" fill="#3C3B3C"/>
<path transform="translate(919,288)" d="m0 0 2 1-2 4h-2l-1 5-5 7-2-1 5-8 2-5z" fill="#757576"/>
<path transform="translate(873,396)" d="m0 0 3 1-1 10-1 4-2-1v-8l-2-1h3z" fill="#737374"/>
<path transform="translate(945,311)" d="m0 0 3 4-1 6-2 3-1-2-3-2h3l-1-3zm-5 10 2 2-2 1z" fill="#323132"/>
<path transform="translate(1067,161)" d="m0 0 2 1 2 4 2 2v4h2l-1 3-2 1-5-11z" fill="#393839"/>
<path transform="translate(1030)" d="m0 0h5l7 11h-3l-1-3-3-1z" fill="#6A696A"/>
<path transform="translate(966,384)" d="m0 0h7l-3 2-3 1h-11l-4-2z" fill="#525152"/>
<path transform="translate(769,599)" d="m0 0 1 3-2 3h-2l1 9-2 5h-1l1-16z" fill="#525152"/>
<path transform="translate(1166,374)" d="m0 0 2 2v13h-2l-1-3v-7z" fill="#504F50"/>
<path transform="translate(910,300)" d="m0 0 1 2-6 8-4-1 4-6h2z" fill="#565556"/>
<path transform="translate(1095,205)" d="m0 0 2 2 6 13-1 3v-2h-2l-3-7-3-5z" fill="#5C5B5C"/>
<path transform="translate(1071,158)" d="m0 0 3 1 5 12-1 3-4-5-2-7z" fill="#636263"/>
<path transform="translate(864,406)" d="m0 0h1l1 9 2 1-3 1-3-2-2 4 1-5z" fill="#545354"/>
<path transform="translate(862,389)" d="m0 0 3 2 14-1-8 4-10-1z" fill="#636263"/>
<path transform="translate(934,346)" d="m0 0 1 3-6 10-2-2 3-7h2z" fill="#3B3A3B"/>
<path transform="translate(1052,128)" d="m0 0h2l6 13-1 2-3-1-2-8z" fill="#535253"/>
<path transform="translate(1158,339)" d="m0 0 3 4 2 9-2 1-3-7z" fill="#747475"/>
<path transform="translate(898,334)" d="m0 0 2 1-5 11-3 3v-3z" fill="#585859"/>
<path transform="translate(908,377)" d="m0 0 2 1v3l-3 4h-3l1-5z" fill="#302F30"/>
<path transform="translate(1170,354)" d="m0 0 4 2 3 2-3 1-1 5-3-2z" fill="#727374"/>
<path transform="translate(1081,182)" d="m0 0 3 1 7 12v2l-3-1-3-7-4-5z" fill="#5A595A"/>
<path transform="translate(930,274)" d="m0 0 2 1-2 5-4 5-1-3z" fill="#353536"/>
<path transform="translate(1029,1157)" d="m0 0h1l1 8v9l-2-3-1-9z" fill="#525152"/>
<path transform="translate(1191,400)" d="m0 0 11 2v1h-10l-9-1v-1z" fill="#757677"/>
<path transform="translate(881,1445)" d="m0 0 2 1v9l-1 7h-1l-1-10z" fill="#525152"/>
<path transform="translate(1e3 965)" d="m0 0h7l9 2v1h-11l-5-2z" fill="#6D6E6F"/>
<path transform="translate(1288,504)" d="m0 0h3l2 10v4h-2z" fill="#616162"/>
<path transform="translate(895,317)" d="m0 0 2 4-5 4-5 3 2-4z" fill="#4A4A4B"/>
<path transform="translate(941,301)" d="m0 0 1 2h2v5l-1-2-3 3h-3l2-4z" fill="#79797A"/>
<path transform="translate(770,470)" d="m0 0 3 2-1 4 2 1-4 2-1-1v-7z" fill="#504F50"/>
<path transform="translate(931,307)" d="m0 0h1v6l-3 3-2-4 2-4z" fill="#5D5C5D"/>
<path transform="translate(996,140)" d="m0 0h2l-1 5-3 3h-2l2-7z" fill="#474748"/>
</svg>
