<?xml version="1.0" encoding="UTF-8"?>
<svg version="1.1" viewBox="0 0 1376 1376" width="344" height="344" xmlns="http://www.w3.org/2000/svg">
<path transform="translate(0)" d="m0 0h1376v1376h-1376z" fill="#FCFCFC"/>
<path transform="translate(910,64)" d="m0 0h5l6 5 6 17 2 11 2 33v31l-2 51-2 39-1 1-3 60-2 54-2 1-5 1-1 3h6l1-2v37l-2 34-2 18-1 2v33l-5 96-3 40-4 64-3 38-7 80-5 48-5 38-6 29-4 10 4 8v10l-4 7-11 9-15 6-31 8-7 1-25 1h-23l-4 1-10-8-6-8-1-4-8-1-7 3-5 4-6 11 1 9h-3l-1-2-3 5-5 15-2 11v29l4 10 2 2 4 16 5 7 10 6 17 7 40 13 22 8 23 10 23 12 27 18 15 11 9 5 21 12 23 12 20 9 10 5 16 6 6 3 20 4h37l23-5 15-5 19-9 10-7h2v-2l11-9 13-12 7-8 5-8 2-12 6 6 1 12-3 8-14 19-7 8h-2l-2 4-11 9-13 7-19 6-31 7-21 3-13 1h-22l-15-2-16-4-14-5-9-4-19-9-20-12-15-10-23-15-23-14-24-14-16-8-19-9-12-4-7-3-18-5-13-4-12-5-11-5-12-7-11-11-6-10-4-11-3-10-1-10v-23l3-18 3-13 12-24 7-9 5-6 3-9 4-18 5-32 3-16v-37l-10-5-10-9-5-8-2-12-7-7-3-5 1-10 5-34 4-18 4-23 4-21 9-4 5-5 9-6 2-1v-9l-5-39-9-57-10-48-11-48-8-35-2-4-21 2h-16l-7-2-4-7-4-18-8-39-3-13-5-22-1 1-2 27-2 19-2 7-3 28-2 30-1 69-2 54-2 30-5 42-5 32-2 19-2 18-1 3-1 12-2 11-2 18v56l1 31 5 42v38l-3 18-5 16-7 14-8 11-11 9-2 4-18-2-27-8-6-1h-17l-32 9-11 2h-23l-22-3-21-7-5-1h-9l-1 4-9-3-13-3-31-4-6-2-2 1-11 23-12 25-7 19-2 8-1 14-2 2-1 6v31l2 34v41l-5 28-1 16v25l2 21 4 15 5 9 8 7 11 4h16l32-5 42-8 17-2 37-1 37 1 26 2h26l8-3 6-4 7-10 4-11 1-6v-19l-1-18v-41l7-36 13-46h1l-1 13-10 61-1 8v48l1 16v29l-3 12-7 10-10 9-12 6-15 5-9 2-27 3-43 1-23 3-54 4h-38l-22-3-16-7-9-7-5-6-4-9-3-20-2-13v-30l1-18 1-2v-33l-4-65-2-29v-25l2-10 6-16 10-18 11-19 7-15 6-12-1-5-3-7-4-22-1-13v-39l2-30 1-31v-54l-7-80-2-38-3-33-3-21-3-28-1-3-2-21-1-2-3-40-2-44v-152l1-30 3-33 6-31 5-19 11-25 12-22 10-16 11-14 9-9 13-9 14-7 21-6 31-5h33l22 3 30 8 24 9 23 11 11 7 11 9 8 7 7 8 11 14 12 19 10 19 5 11 3 10 3 15 4 17 1 7 1 39 5-3 7-8h5l2 6h10l15-3 1-1 4-40 4-28 7-21 6-11 7-11 10-13 11-12 4-5 8-7 13-12 11-8 3-3 15-10 7-5 20-9 13-5 10-4 20-6 13-4 28-7z" fill="#D4D5D5"/>
<path transform="translate(910,64)" d="m0 0h5l6 5 6 17 2 11 2 33v31l-2 51-2 39-1 1-3 60-2 54-2 1-5 1-1 3h6l1-2v37l-2 34-2 18-1 2v33l-5 96-3 40-4 64-3 38-7 80-5 48-5 38-6 29-4 10 4 8v10l-4 7-11 9-15 6-31 8-7 1-25 1h-23l-4 1-10-8-6-8-1-4-8-1-7 3-5 4-6 11 1 9h-3l-1-2-3 5-5 15-2 11v29l4 10 2 2 4 16 5 7 10 6 17 7 40 13 22 8 23 10 23 12 27 18 15 11 9 5 21 12 23 12 20 9 10 5 16 6 6 3 20 4h37l23-5 15-5 19-9 10-7h2v-2l11-9 13-12 7-8 5-8 2-12 6 6 1 12-3 8-14 19-7 8h-2l-2 4-11 9-13 7-19 6-31 7-21 3-13 1h-22l-15-2-16-4-14-5-9-4-19-9-20-12-15-10-23-15-23-14-24-14-16-8-19-9-12-4-7-3-18-5-13-4-12-5-11-5-12-7-11-11-6-10-4-11-3-10-1-10v-23l3-18 3-13 12-24 7-9 5-6 3-9 4-18 5-32 3-16v-37l-10-5-10-9-5-8-2-12-7-7-3-5 1-10 5-34 4-18 4-23 4-21 9-4 5-5 9-6 2-1v-9l-5-39-9-57-10-48-11-48-8-35-2-4-21 2h-16l-7-2-4-7-4-18-8-39-3-13-5-22-4-29 1-5 11-6 11-12h5l2 6h10l15-3 1-1 4-40 4-28 7-21 6-11 7-11 10-13 11-12 4-5 8-7 13-12 11-8 3-3 15-10 7-5 20-9 13-5 10-4 20-6 13-4 28-7z" fill="#D4D5D5"/>
<path transform="translate(414,83)" d="m0 0h33l22 3 30 8 24 9 23 11 11 7 11 9 8 7 7 8 11 14 12 19 10 19 5 11v6l-3-4-9-15-10-13-12-18-2-4h-2l-7-8-8-8-11-9-12-9-11-7-12-6-18-6-13-4-23-4-16-2h-38l-35 6-17 5-17 8-14 10-9 9-5 7h2l1 8-3 6-4 17-1 9 1 20-1 13v45l-1 3 1 6 4 4 16 8 24 11 9 4-4 2-17 3-7-1-17-13-7-6 2 3 4 9-2 4h-3l-2-4h-2v-2l-7-2 4 6 13 13 2 5-7 29-1 8h2l-1 5 1 3-3 3 2 5 1 5v11l-1 2v16l-2 6v14l1 3-1 17v9h2v-26l4-19 4-13 7-12 9-10 6-4-1 7-2 7v7l33 5h3l-7-7-13-18-6-8-3-3-6-1-6 3-5 5-3 4-2-1 7-21 6-10 5-4 6-3 11 1 22 6h14l19-5 8-1h31l17 3 15 5 13-1 23-6h9l6 3 5 6 5 11 4 16-1 4-4-6-6-5-7-1-6 4-9 13-7 9-5 5-5 6 2-1 34-4-1-10-2-12 4 2 9 10 5 10 4 12 3 16 1 11v19l-4 16-2 3-20-2 5-22v-13l-7-1-6 4-4 7-5 10-4 11-2 2-20-1-2-14-3-9-3-1h-16l-19 4h-16l-29-6-8 1-5 4-3 11-1 8-16 1-5-1-8-16-5-12-6-5-9-1-2 2v9l4 19 1 5-16 2h-5l-3-7-2-1 2 9 1 7h2l-1 5 1 2v9l1 7v14l2 4v11l-3 3-4-3-1-3 1 8 10 28 16 39 6 14-1 3-4-2v-2l-5-2-8-6v-2h-3l2 5h2l2 6 1 16v18l1 10 2 54 2 29v13l1 9 1 18 1 1v11l2 12 1 16 1 32-2 20-1 3 1 3 1 13 1 10 1 2 1 16 1 4-1 1 1 7 3 3 4 8 8 11 4 5 5 4 15 3 14 2 23 6 10 3 10 2 2 2-10-1-21-3-11-2h-11l-1 2 11 3 19 4h11l8-1 1-1h5l1-2 4-2 9-2 9-1 4-1 1-2 7-1 9-4 7-5 4-1 9-5 9-4 9-6 5-5 5-3h2l1-10 4-7 5-14 2-11 4-6 2-10 2-16 4-15 3-11 2-24v-27l1-24v-10l-3-27 3-13 1-13-1-16v-11l-1-7v-15l-1-4v-8l-2-5-2-7-2-6-1-16-1-5v-7l-1-4v-3h-2l-1 7h-2l-2 11-17 13-6 2 3-9 12-31 13-36 9-30 8-31 3-15v-15l2-7 1-9 2-9 4-6 3-10 4-6h2l1-4 3-4h2l1-4 8-14 3-7 6-5v15l-1 8-2 7-3 28-2 30-1 69-2 54-2 30-5 42-5 32-2 19-2 18-1 3-1 12-2 11-2 18v56l1 31 5 42v38l-3 18-5 16-7 14-8 11-11 9-2 4-18-2-27-8-6-1h-17l-32 9-11 2h-23l-22-3-21-7-5-1h-9l-1 4-9-3-13-3-31-4-6-2-2 1-11 23-12 25-7 19-2 8-1 14-2 2-1 6v31l2 34v41l-5 28-1 16v25l2 21 4 15 5 9 8 7 11 4h16l32-5 42-8 17-2 37-1 37 1 26 2h26l8-3 6-4 7-10 4-11 1-6v-19l-1-18v-41l7-36 13-46h1l-1 13-10 61-1 8v48l1 16v29l-3 12-7 10-10 9-12 6-15 5-9 2-27 3-43 1-23 3-54 4h-38l-22-3-16-7-9-7-5-6-4-9-3-20-2-13v-30l1-18 1-2v-33l-4-65-2-29v-25l2-10 6-16 10-18 11-19 7-15 6-12-1-5-3-7-4-22-1-13v-39l2-30 1-31v-54l-7-80-2-38-3-33-3-21-3-28-1-3-2-21-1-2-3-40-2-44v-152l1-30 3-33 6-31 5-19 11-25 12-22 10-16 11-14 9-9 13-9 14-7 21-6z" fill="#9FA0A0"/>
<path transform="translate(308,976)" d="m0 0 6 2 31 4 13 3 9 4 1-5h9l14 4 12 4 22 3h23l18-4 25-7h17l17 4 16 5 18 2 2-3 3 11 1 6h2l7 24 5 26v26l-2 12-1 7-2-1-9 31-6 25-4 22v41l1 18v19l-3 13-7 12-7 6-6 3-4 1h-26l-26-2-49-1-25 1-29 4-35 7-27 4h-16l-11-4-10-9-5-11-3-12-2-21v-25l2-23 4-21v-41l-2-34v-31l2-7 1-1 1-14 6-20 12-26 15-30z" fill="#D4D5D5"/>
<path transform="translate(877,944)" d="m0 0 10 2 24 11 22 11 28 17 8 6 26 18 7 5 5 3 26 20 6 4 11 9 18 14 13 10 16 13 30 26 30 28 3 3 3 6-2 12-6 9-13 14-16 14h-2v2l-11 7-15 8-13 5-24 6-6 1h-37l-20-4-18-8-7-3-12-5-29-14-22-12-13-8-11-7-15-11-22-14-27-14-25-10-36-12-26-9-16-8-5-4-4-6-4-16-3-3-3-9v-29l3-15 5-14 3-4 1 4h3l-2-9 6-11 7-6 6-2 8 1 3 6 6 8 8 6 8-1h27l17-1 15-3 26-7 13-6 10-8 3-6z" fill="#D4D5D5"/>
<path transform="translate(414,96)" d="m0 0h38l28 4 14 3 10 3 18 6 16 8 11 8 14 11 13 12 7 7v2h2l10 14 8 12 9 12 8 13 2 1 2 6 3 15 4 17 1 7 1 39 2 1-4 3-8 4 1 25h-8l-5-4-7 1-10-4-10 2-2 9-4 4-1 8h-1l-2-8v-11l6-17 6-14 6-15-12 12-7 8-11 11-1 4 4 22 9 54 1 4v10l-4-4-2-7-4 4-2 3h-3v5h-2l-3-12-4-9-6-10-7-7-2-1 4 18-1 5-36 4 2-4 5-4 9-12 10-14 6-4 7 1 8 7 2 3-2-11-4-12-5-9-5-4-3-1h-9l-23 6-13 1-15-5-17-3h-31l-17 3-10 3h-14l-22-6-11-1-9 5-6 9-6 16-2 7 4-5 8-6 6-1 5 3 7 8 11 16 10 11-4 1-33-5-1-1v-7l3-10v-3l-10 9-9 14-4 11-4 17-1 6-1 26h-2l-1-14 1-13-1-5v-11l2-7v-15l1-6v-7l1-2-2-1v-2l-2-6 4-2v-2l-2-1 2-5h-2v-8l7-29-2-5-15-15-1-4 7 2v2l4 1 1 2 3-1-2-5-3-7-2-3 5 2 10 9 13 9 11-1 13-3-24-11-16-7-11-7-2-5v-5l1-1v-48l1-15-1-21 2-6 3-14 3-7v-7h-2l2-4 9-10 8-7 13-8 16-7 19-5z" fill="#D3D4D4"/>
<path transform="translate(910,64)" d="m0 0h5l6 5v5l-30 8-17 5-9 3-29 10-18 8-30 15-12 7-11 6-5 2v2l-8 7-7 9-9 12-11 17-8 15-7 16-7 17-5 18-2 9-3 14-1 11v34l3 26 9 49 14 62 6 26 10 45 12 65 7 37 5 41 2 22 1 19v15l-1 25-4 41-6 51-2 24-1 24v35l4 20 4 11 5 6 9 5 13 2 6-2 1-1 25-1 19-4 19-7 13-9 7-7 3 1 2 4v10l-4 7-11 9-15 6-31 8-7 1-25 1h-23l-4 1-10-8-6-8-1-4-8-1-7 3-5 4-6 11 1 9h-3l-1-2-3 5-5 15-2 11v29l4 10 2 2 4 16 5 7 10 6 17 7 40 13 22 8 23 10 23 12 27 18 15 11 9 5 21 12 23 12 20 9 10 5 16 6 6 3 20 4h37l23-5 15-5 19-9 10-7h2v-2l11-9 13-12 7-8 5-8 2-12 6 6 1 12-3 8-14 19-7 8h-2l-2 4-11 9-13 7-19 6-31 7-21 3-13 1h-22l-15-2-16-4-14-5-9-4-19-9-20-12-15-10-23-15-23-14-24-14-16-8-19-9-12-4-7-3-18-5-13-4-12-5-11-5-12-7-11-11-6-10-4-11-3-10-1-10v-23l3-18 3-13 12-24 7-9 5-6 3-9 4-18 5-32 3-16v-37l-10-5-10-9-5-8-2-12-7-7-3-5 1-10 5-34 4-18 4-23 4-21 9-4 5-5 9-6 2-1v-9l-5-39-9-57-10-48-11-48-8-35-2-4-21 2h-16l-7-2-4-7-4-18-8-39-3-13-5-22-4-29 1-5 11-6 11-12h5l2 6h10l15-3 1-1 4-40 4-28 7-21 6-11 7-11 10-13 11-12 4-5 8-7 13-12 11-8 3-3 15-10 7-5 20-9 13-5 10-4 20-6 13-4 28-7z" fill="#191819"/>
<path transform="translate(621,361)" d="m0 0h1v15l-1 8-2 7-3 28-2 30-1 69-2 54-2 30-5 42-5 32-2 19-2 18-1 3-1 12-2 11-2 18v56l1 31 5 42v38l-3 18-5 16-7 14-8 11-11 9-2 4-18-2-27-8-6-1h-17l-32 9-11 2h-23l-22-3-21-7-5-1h-9l-1 4-9-3-13-3-31-4-6-2-2 1-11 23-12 25-7 19-2 8-1 14-2 2-1 6v31l2 34v41l-5 28-1 16v25l2 21 4 15 5 9 8 7 11 4h16l32-5 42-8 17-2 37-1 37 1 26 2h26l8-3 6-4 7-10 4-11 1-6v-19l-1-18v-41l7-36 13-46h1l-1 13-10 61-1 8v48l1 16v29l-3 12-7 10-10 9-12 6-15 5-9 2-27 3-43 1-23 3-54 4h-38l-22-3-16-7-9-7-5-6-4-9-3-20-2-13v-30l1-18 1-2v-33l-4-65-2-29v-25l2-10 6-16 10-18 11-19 7-15 6-12-1-5-3-7-4-22-1-13v-39l2-6 2 3v45l2 17 6 9 9 4-1-7h2v-2l8 1 18 6 13 5 5 1h20l6 1-1 2 16 7 15 4 11 2h11l8-1 1-1h5l1-2 4-2 9-2 9-1 4-1 1-2 7-1 9-4 7-5 4-1 9-5 9-4 9-6 5-5 5-3h2l1-10 4-7 5-14 2-11 4-6 2-10 2-16 4-15 3-11 2-24v-27l1-24v-10l-3-27 3-13 1-13-1-16v-11l-1-7v-15l-1-4v-8l-2-5-2-7-2-6-1-16-1-5v-7l-1-4v-3h-2l-1 7h-2l-2 11-17 13-6 2 3-9 12-31 13-36 9-30 8-31 3-15v-15l2-7 1-9 2-9 4-6 3-10 4-6h2l1-4 3-4h2l1-4 8-14 3-7z" fill="#9FA0A0"/>
<path transform="translate(351,327)" d="m0 0 11 1 22 6h14l19-5 8-1h31l17 3 15 5 13-1 23-6h9l6 3 5 6 5 11 4 16-1 4-4-6-6-5-7-1-6 4-9 13-7 9-5 5-5 6 2-1 34-4-1-10-2-12 4 2 9 10 5 10 4 12 3 16 1 11v19l-4 16-2 3-20-2 5-22v-13l-7-1-6 4-4 7-5 10-4 11-2 2-20-1-2-14-3-9-3-1h-16l-19 4h-16l-29-6-8 1-5 4-3 11-1 8-16 1-5-1-8-16-5-12-6-5-9-1-2 2v9l4 19 1 5-16 2h-5l-4-11-2-5v-23l4-19 4-13 7-12 9-10 6-4-1 7-2 7v7l33 5h3l-7-7-13-18-6-8-3-3-6-1-6 3-5 5-3 4-2-1 7-21 6-10 5-4z" fill="#191819"/>
<path transform="translate(586,796)" d="m0 0h1l3 48 5 42v38l-3 18-5 16-7 14-8 11-11 9-2 4-18-2-27-8-6-1h-17l-32 9-11 2h-23l-22-3-21-7-5-1h-9l-1 4-9-3-13-3-31-4-6-2-2 1-11 23-12 25-7 19-2 8-1 14-2 2-1 6v31l2 34v41l-5 28-1 16v25l2 21 4 15 5 9 8 7 11 4h16l32-5 42-8 17-2 37-1 37 1 26 2h26l8-3 6-4 7-10 4-11 1-6v-19l-1-18v-41l7-36 13-46h1l-1 13-10 61-1 8v48l1 16v29l-3 12-7 10-10 9-12 6-15 5-9 2-27 3-43 1-23 3-54 4h-38l-22-3-16-7-9-7-5-6-4-9-3-20-2-13v-30l1-18 1-2v-33l-4-65-2-29v-25l2-10 6-16 10-18 11-19 7-15 6-12-1-5-3-7-4-22-1-13v-39l2-6 2 3v45l2 17 6 9 9 4-1-7h2v-2l8 1 18 6 13 5 5 1h20l6 1-1 2 16 7 15 4 11 2h25l10-2 16-5 19-4 12-1 23 4 9 4 1 3h7l11-4 10-9 7-14 4-15 6-43 1-14v-20l-1-26v-14l1-21z" fill="#1A191A"/>
<path transform="translate(574,1099)" d="m0 0h1l-1 13-10 61-1 8v48l1 16v29l-3 12-7 10-10 9-12 6-15 5-9 2-27 3-43 1-23 3-54 4h-38l-22-3-16-7-9-7-5-6-4-9-3-20-2-13v-30l1-18h1l1 11 2 35 2 14 4 12 5 8 7 6 11 4h16l32-5 42-8 17-2 37-1 37 1 26 2h26l8-3 6-4 7-10 4-11 1-6v-19l-1-18v-41l7-36z" fill="#1A191A"/>
<path transform="translate(621,361)" d="m0 0h1v15l-1 8-2 7-3 28-2 30-1 69-2 54-2 30-5 42-5 32-2 19-2 18-1 3-1 12-3 15h-1l-1-17 1-15 2-12 1-16v-14l-2-23-1-18-2-41v-13l-1-19-1-2 1-4-2-14-2-6-2-9-1-12 1-2h-2v-2l-2-1-10 52-11 43-17 13-6 2 3-9 12-31 13-36 9-30 8-31 3-15v-15l2-7 1-9 2-9 4-6 3-10 4-6h2l1-4 3-4h2l1-4 8-14 3-7z" fill="#727273"/>
<path transform="translate(270,498)" d="m0 0 2 3 5 14 3 14 2 7 3 10 1 4 3 14v6l2 1 2 18 1 5 1 6v26l1 5-1 8-1 4-1 14v11l2 11 5 3 1 5-3 1v2l-5 1 2 7 4 2 3 5 1 4 1 16h2l3 10 2 10 2 37v16l-1 21-1 10v11l1 2v22l2 14v19l2 18 6 18 5 5v3h2v2h4v3l5 2 8 4 5 4 8 4 24 1 15 3-1 2h-9v2l-7-2 1-2-5-1h-20l-14-4-9-4-13-4-8-2v2h-2l1 7-5-1-5-3-6-9-2-17v-45l-2 1v-13l1-15 1-31v-54l-7-80-2-38-3-33-3-21-3-28-1-3-2-21-1-2-2-24z" fill="#7C7A7B"/>
<path transform="translate(887,282)" d="m0 0h7l13 7 2 2h7l7-6v27l-2 54-2 1-5 1-1 3h6l1-2v29h-3l-2-2h-4l-4 12-2 12-2 2-6 1-3-3-8-27-4-6-2-1h-7l-2 2v16l4 20-24 1-5-12-2-5-1-12 3-20 5-17 6-12 7-10 14-14 4-1-1 5-3 11-1 8 9 1 19 4-7-14-6-16-6-9-3-2-6 1-5 3-8 8h-2l1-5 6-15 10-15z" fill="#191819"/>
<path transform="translate(592,278)" d="m0 0 1 2-10 25-6 14-2 7v11l1 2 2-3 3-3 3-9h3l1-2 7-1 9 4 7-1 5 4h7v-13h1l2 13v7l-1 3-2 27-2-2-3 3h-2l-1 6-6 10-5 9h-2l-4 8h-2l-2 5-3 6-2 6-3 5-2 9-3 18v13l-6 28-10 35-2 3-4-2-1-4-3-5-1-5 1-4 1-15-2-14 4-10-5-1 4-4 4-16v-19l-2-17 1-10 3-1 6-7 2 2 2 8 1 1v-9l-4-21-5-33-4-20-1-8 7-8 11-11 7-8z" fill="#9FA0A0"/>
<path transform="translate(909,430)" d="m0 0h3v12l-10 3v8l10-1-3 9-5 4h-4l-1 21 8-1v-18h3l1 1 2-27 1-4h2l1-7h1v10l-2 18-1 2v33l-5 96-3 40-4 64-3 38-7 80-5 48-5 38-6 29-4 10-1 4-3 2h-2l-4 1-4-2 1-6 2-6 1-4 2-5 3-16 3-17 2-16 3-16 3-27 2-10 2-22 3-17v-11l1-12v-8l3-10 2-24 1-7 2-7 3-31 2-43 1-19 1-3v-16l-2-12-3-1-3-7-2-11-11-36-2-4v-5l2-1h8l1 1 4 28v9l5 1 1 2h2l2-5v-10l1-2v-18l-1-4 1-16h-6l-3-3-2-4v-23l1-22 2-3 2-9 5-2z" fill="#9FA0A0"/>
<path transform="translate(414,83)" d="m0 0h33l22 3 30 8 24 9 23 11 11 7 11 9 8 7 7 8 11 14 12 19 10 19 5 11v6l-3-4-9-15-10-13-12-18-2-4h-2l-7-8-8-8-11-9-12-9-11-7-12-6-18-6-13-4-23-4-16-2h-38l-35 6-17 5-17 8-14 10-9 9-10 13-14 22-8 14-4 8-1-2 8-19 12-22 10-16 11-14 9-9 13-9 14-7 21-6z" fill="#1B1A1B"/>
<path transform="translate(619,379)" d="m0 0h1l-1 12-3 28-2 30-1 69-2 54-2 30-5 42-6 38h-1v-24l1-2h2l-1-8 1-7 1-19v-8l-2-18-1-25v-31l-1-14-2-13-1-14-1-4-2-9v-11l-2-6 1-8v-7l1-10 2-6 5-8 3-6h2l2-9 2-4h2l1-6 4-15 2-6 2-1z" fill="#191819"/>
<path transform="translate(577,1061)" d="m0 0h1v27l-2 16-2-1-9 31-6 25-4 22v41l1 18v19h-1v-9h-2l-2 5-6 13-2 1v2l-4 1-2-9v-20l2-18 2-12v-7l1-10v-41l5-12 1-13v-9l5-19 7-10 5-5 5-1 2-8 2-12z" fill="#9E9F9F"/>
<path transform="translate(270,498)" d="m0 0 2 3 5 14 3 14 2 7 3 10 1 4 3 14v6l2 1 2 18 1 5 1 6v26l1 5-1 8-1 4-1 14v11l2 11 3 2h-6l2 32 2 29 2 19v65l-1 33-1 7h-1l-1-95-7-80-2-38-3-33-3-21-3-28-1-3-2-21-1-2-2-24z" fill="#7D7B7C"/>
<path transform="translate(298,781)" d="m0 0h1l1 34 2 3 2 17 1 11 2 8-1 12 1 9 1 3 2 17v13l1 7 1 12h2l1 7 4 2-1 2 4 2v2h2v2l5 2 8 4v2l7 1 5 3 7 2 3 2 24 1 15 3-1 2h-9v2l-7-2 1-2-5-1h-20l-14-4-9-4-13-4-8-2v2h-2l1 7-5-1-5-3-6-9-2-17v-45l-2 1v-13l1-15 1-31h1l1 34z" fill="#737374"/>
<path transform="translate(308,976)" d="m0 0 6 2 31 4 10 2v1l-11-1-30-2-6-2-2 4-1 5-3 7-4 12-3 5-6 21-3 10-3 15-1 15 1 14 2 9 3 21v9l-1 13-2 11-4 16-5 11-2 5-2-2-1-41-2-34v-31l2-7 1-1 1-14 6-20 12-26 15-30z" fill="#9E9F9F"/>
<path transform="translate(798,214)" d="m0 0 6 3 32 24 14 11 7 6-1 7-13 34-13 33-14 35-1-4 8-44 5-26 4-19-1-7-14-22-11-17-7-10z" fill="#1A191A"/>
<path transform="translate(427,470)" d="m0 0 5 1 14 14h1l1-9 4-5h4l1 8 3 3v48l-7 19-3 8h-2l-1-48-2-6-7-7-4-3v-2h-2l-3-3v67h-2l-9-23-1-7v-44l5-8z" fill="#191819"/>
<path transform="translate(808,423)" d="m0 0 3 4 6 14 15 38 18 49 18 51v2l-6-2-15-10-4-4-11-47-10-42-14-49z" fill="#191819"/>
<path transform="translate(408,1090)" d="m0 0 7 2 12 9 3 1v-9l5-3h3l1 7 2 2v18l-1 21-10 18-3-1 1-21v-18l-11-7-6-5h-2l-4 54h-2l-5-12-2-4v-21l2-21 3-1 2-5z" fill="#1A191A"/>
<path transform="translate(475,471)" d="m0 0h3l1 49 1 3h12l2-1v-51l4 1 5 7 2 12v35l-5 5-6 3h-13l-9-3-6-7v-40l3-5 4-7z" fill="#191819"/>
<path transform="translate(847,944)" d="m0 0h5l3 5-1 2h-2v2l6-2-3 3-10 5-20 6-11 2-25 1-2 2-8 1-12-3-9-6-6-9v-4l7-3 9 2 9 4 17 4 13 1 15-3 5-3 13-4z" fill="#9D9E9E"/>
<path transform="translate(379,469)" d="m0 0h27l3 2 2 5-1 4-27 1v8l2 1 24 1-3 5-6 5-17 1 1 19 26 1-2 4-8 6h-18l-7-6-2-3-1-5v-36l4-10z" fill="#1A191A"/>
<path transform="translate(514,472)" d="m0 0 4 1 5 5 3 8 1 4h2l4-11 4-5 4 1 2 10 1 20-1 23-4 7h-4l-1-33-5 8-4-2-3-7-2-1v34l-4-1-6-8v-41l4-2-1-8z" fill="#191819"/>
<path transform="translate(581,456)" d="m0 0h2v9l-5 27-3 17-9 46-11 43-17 13-6 2 3-9 12-31 13-36 9-30 8-31z" fill="#191819"/>
<path transform="translate(296,464)" d="m0 0 2 3 8 26 12 36 9 26 16 39 6 14-1 3-4-2v-2l-5-2-8-6-4-5-4-13-9-34-13-53-5-23z" fill="#191819"/>
<path transform="translate(293,278)" d="m0 0 4 4 10 13 13 13 2 5-9 38-8 34-5 22-2 5h-1l1-12 5-41 3-31-1-8-10-30-2-8z" fill="#191819"/>
<path transform="translate(592,278)" d="m0 0 1 2-10 25-6 14-2 7v11l3 62v17h-1l-3-21-4-21-5-33-4-20-1-8 7-8 11-11 7-8z" fill="#191819"/>
<path transform="translate(948,1042)" d="m0 0 4 2 8 1 8 11 7 11 8 13 3 5v2h2l1 4-25-2-25-3-4-6-4-2 2-4 9-1 26 4-10-14-7-10-3-7z" fill="#191819"/>
<path transform="translate(460,1092)" d="m0 0h1v43l10 4 6 1 1-8 1-32 4 1 5 10v32l-1 5h-13l-17-6-9-8v-15l1-14 2-6 6-6z" fill="#191819"/>
<path transform="translate(272,530)" d="m0 0 2 4 2 10 5 40 3 19 3 35 2 19 3 27 3 39 1 19 2 19v65l-1 33-1 7h-1l-1-95-7-80-2-38-3-33-3-21-3-28-1-3-2-21-1-2z" fill="#1B1A1B"/>
<path transform="translate(961,1008)" d="m0 0 8 1 1 5-4 12v7l3 2 5 1 2-10 3-7 4 2 2 7-1 8-2 4 1 4 11 7 5 3 3-17 4-1 3 7v8l-4 8-8 2h-5l-16-10-8-6-8-7-4-7v-8z" fill="#1A1A1B"/>
<path transform="translate(333,470)" d="m0 0 4 1 4 9 7 21 2-3 9-26 2-2h4l2 9-1 9-9 23-7 20-3-1-9-25-7-22z" fill="#191819"/>
<path transform="translate(269,1191)" d="m0 0h1l-1 16-1 15v13l3 16 3 9 4 5v2l3 1 2 5 5 13 6 8 3 5 2 4h4v2h17v1l-8 1h-16l-11-4-10-9-5-11-3-12-2-21v-25l2-23z" fill="#9B9C9C"/>
<path transform="translate(816,200)" d="m0 0 6 1 25 13 14 8 15 9 16 11 8 6 1 3-6 1h-16l-12-11-8-7-13-11-20-15-10-7z" fill="#1B1A1B"/>
<path transform="translate(498,1111)" d="m0 0 4 2 3 4 4 15h2l4-6 4 1 1 1 2 11v34l-6 1v-30l-6 3h-2l-4-13-1-1v27l-3-1-6-9v-30l2-5z" fill="#1C1B1C"/>
<path transform="translate(383,1097)" d="m0 0h8l-1 5-17 6-8 5-2 8 21-8 3-1-2 4-7 7-12 5-3 1-2 17 14-5 8-3 3 1-7 7-16 8h-6l-4-3v-14l3-20 5-10 12-7z" fill="#1A191A"/>
<path transform="translate(891,433)" d="m0 0 2 1v13l-8 26-9 24-3 1-8-38-3-12 2-3 1-10h3l4 10 5 24 5-13 6-19z" fill="#191819"/>
<path transform="translate(911,395)" d="m0 0 5 1 4 2-1 27-3 12h-2l-2 31-2 3-2-4v16l-1 2-8 1v-13l1-8 7-3 5-10-6 2-5-1v-8l7-3h4v-12l-3-1-2-1 1-2 2 1-1-5-3 1-3-2 2-7 4-16z" fill="#9FA0A0"/>
<path transform="translate(585,263)" d="m0 0h2l-2 4-19 19h-2l-1 3-11 9-7 5-8-1-20-3 1-2 16-7 18-8 19-10z" fill="#1A191A"/>
<path transform="translate(909,1180)" d="m0 0 10 3 16 8 23 11 24 9 12 5 19 6 18 2h19l4-1h11l10-2 1-1 14-3 3 1-15 5-23 5h-37l-20-4-18-8-7-3-12-5-29-14-22-12z" fill="#979898"/>
<path transform="translate(404,497)" d="m0 0 5 3 5 6-1 13-2 4-27-1-1-1v-19l2-1 15-1z" fill="#D0D1D1"/>
<path transform="translate(297,261)" d="m0 0 5 2 11 8 16 9 23 10 13 6-4 2-17 3-7-1-17-13-7-6-7-8-9-11z" fill="#191819"/>
<path transform="translate(909,430)" d="m0 0h3v12l-10 3v8l10-1-3 9-5 4h-4l-1 21 11-2-3 9-2 3h-7l-4-6v-23l1-22 2-3 2-9 5-2z" fill="#191819"/>
<path transform="translate(527,1010)" d="m0 0h7l-5 4-5 7-3 10 5-3 5-4 6-4h2v-5l5 3 3 5-4 12-5 10h-3l-2-1 2 3 1 10 1 3 6-5 5-12 1-8 2-1v13l-2 7-6 8-5 1-8-5 2-4v-3l-5-1 1-7-3-1 1-4h-2v-2l10-1 3-1-2-1 1-6-12 6v2l-6-3 1-10 3-8z" fill="#9FA0A0"/>
<path transform="translate(355,544)" d="m0 0h14l5 12 11 31 7 18v2l-4-2-10-16-11-18-6-11-6-12z" fill="#1A191A"/>
<path transform="translate(270,498)" d="m0 0 2 3 1 13 2 2 5 21 3 12 3 9 3 16 1 9 2 10 1 9-3 9-2-3-1-4-1-11-3-16-3-11-2 1-4-28-1-5h-2l-1-13z" fill="#737374"/>
<path transform="translate(511,547)" d="m0 0h14l1 2-12 24-6 10-6 11-7 12h-2v2l-2-1 4-12 3-8 11-34z" fill="#1A191A"/>
<path transform="translate(578,494)" d="m0 0h2l1 6 3 6 2 9 2 17 1 14 1 10 1 17v33l1 9 1 20 1 5v19l1 10v8l-1 6h-1l-3-37-1-18-2-41v-13l-1-19-1-2 1-4-2-14-2-6-2-9-1-12 1-2h-2v-2l-2-1 1-7z" fill="#7C7A7B"/>
<path transform="translate(348,1117)" d="m0 0h2v8l-12 31-6 15-3 1-6-14-2-7 1-11 1-5 5 1 4 15 2-1 8-23z" fill="#191819"/>
<path transform="translate(441,1093)" d="m0 0 7 1 1 4-2 7-3-3v7l3 2 1 19 2 5 7 6v2l4 1v2h2v2l-2 1-9-1-3-2-5 1-8 4v-7l3-6 1-21v-18l-1-5z" fill="#F3F3F3"/>
<path transform="translate(297,881)" d="m0 0 2 1 1 14 3 29 2 12 5 18v2l-6-1-5-6-3-5-1-6v-43z" fill="#9E9F9F"/>
<path transform="translate(272,1069)" d="m0 0 2 1 5 25 2 8 2 16-2 9-5 6-1-3-2-1-1-7v-13l-1-1-1-17 1-21z" fill="#D5D6D6"/>
<path transform="translate(973,995)" d="m0 0 4 2 14 9 8 6 5 5-5-2-17-10-3 1 34 24 13 10-3 1-16-9-30-21-6-5v-2l-4-2-2-2v-3l9 1-1-1z" fill="#1F1E1F"/>
<path transform="translate(881,84)" d="m0 0h7l-3 3-12 5-8 1v2l-10 4-12 5-16 6-7 2-4-1 2-4 18-8 32-11z" fill="#F1F1F1"/>
<path transform="translate(881,511)" d="m0 0h8l1 1 5 37 1 17-2-2-12-40-3-7v-5z" fill="#191819"/>
<path transform="translate(293,702)" d="m0 0 2 4 1 13 1 9 2 5 3 1 3 12 2 7v15l-1 3h-2l-3-9-4-1-2-19-2-29z" fill="#727273"/>
<path transform="translate(927,197)" d="m0 0h1l-1 32-3 67h-1l-1-10-2-4-1-1 1-14 1-19 2-13 1-11 1-15z" fill="#9E9F9F"/>
<path transform="translate(395,968)" d="m0 0h11l22 4 15 2 4 2-4 2-8 1h-11l-19-4-11-4z" fill="#CCCDCD"/>
<path transform="translate(469,436)" d="m0 0h16l4 4 1 2v6h-2v-5l-9 1-5-1-13 3h-10l-5-3v-2z" fill="#F1F1F1"/>
<path transform="translate(621,361)" d="m0 0 1 4-2 4h-2l-4 9-2 5h-2l-2 4-4 10-3 2-1 3h-2l-2 4-7 17-2 9h-2v14l-3 5-2-3 2-9 1-9 2-9 4-6 3-10 4-6h2l1-4 3-4h2l1-4 8-14 3-7z" fill="#7D7B7C"/>
<path transform="translate(409,1103)" d="m0 0 4 2 11 8 4 4-1 14-3-1-3-9v-3l-5 1-3 5-2 5-3 1v-12z" fill="#F8F8F8"/>
<path transform="translate(704 1e3)" d="m0 0 1 3-2 10v10l2 10 5 24 2 15 2 6-4-4-4-16-3-3-3-9v-29l3-15z" fill="#989999"/>
<path transform="translate(971,1006)" d="m0 0 5 3 2 3-4 1-2-1-1 2 4 2 6 2-3 5-4 13h-5l-4-3v-7l4-12v-5z" fill="#CECFCF"/>
<path transform="translate(752,135)" d="m0 0 2 1-7 8-10 14-10 15-15 25-1-4 3-8 7-10 11-17 7-12 10-10z" fill="#727273"/>
<path transform="translate(272,505)" d="m0 0 3 3 2 9 3 12 2 7 3 10 1 4 3 14v6l2 1 2 18 1 5v3h-2l-1-7-2-7-1-9-4-21-2-4-5-21-3-12-2-2z" fill="#7D7B7C"/>
<path transform="translate(753,951)" d="m0 0 5 2 11 7 17 7v2h-17l-10-6-6-8z" fill="#CFD0D0"/>
<path transform="translate(471,101)" d="m0 0 20 1 10 4-1 4-17-1-4-2-9-1-4-2 1-2z" fill="#F5F5F5"/>
<path transform="translate(550,1034)" d="m0 0h1v13l-2 7-6 8-5 1-8-5 2-4v-3l-5-1v-5l6-1 2 3 1 10 1 3 6-5 5-12 1-8z" fill="#919292"/>
<path transform="translate(589,606)" d="m0 0h2l1 9 1 20 1 5v19l1 10v8l-1 6h-1l-3-37-1-18z" fill="#7D7B7C"/>
<path transform="translate(398,436)" d="m0 0h12l9 2 15 2 6 2-1 4-16-3-11-1-3-1h-10l-3-1z" fill="#F6F7F7"/>
<path transform="translate(906,463)" d="m0 0 3 1-1 3v16l-1 2-8 1v-13l1-8z" fill="#CBCBCB"/>
<path transform="translate(414,486)" d="m0 0 2 2v36l-2 1-3-3 1-3 1-13-6-7-2-2h3l2-5 1-2h2z" fill="#FDFDFD"/>
<path transform="translate(430,86)" d="m0 0h16l14 2 5 1 9 4 5 2-4 1-43-7-3-2z" fill="#6E6D6E"/>
<path transform="translate(299,763)" d="m0 0h2l2 8 1 21v8l-2 3-3-1z" fill="#A0A1A1"/>
<path transform="translate(269,277)" d="m0 0h1l1 12v32l-1 3-1 31h-1v-76z" fill="#7F7E7E"/>
<path transform="translate(284,605)" d="m0 0h1v5l4 2-1 17 2 16 1 9v19h-1l-3-22-3-39z" fill="#727273"/>
<path transform="translate(389,458)" d="m0 0 4 2 8 6-1 2h-21v-3l-2-4h9z" fill="#F8F8F8"/>
<path transform="translate(917,430)" d="m0 0h1v10l-2 18-1 2v17l-1 11-2-1 1-18-1-19 2-13h2z" fill="#191819"/>
<path transform="translate(421,1087)" d="m0 0 7 2 2 2v11l-4-1-8-6-2-5z" fill="#F0F1F1"/>
<path transform="translate(542,1019)" d="m0 0 5 3-4 13-3 7-6 1-3-1-1-4 8-3h2l-2-3-1-3 5-4 1-3z" fill="#7D7D7E"/>
<path transform="translate(473,968)" d="m0 0m-1 1m-9 1h17v1l-16 4-8 3-7 1h-14v-1l8-1 1-1h5l1-2 4-2z" fill="#919292"/>
<path transform="translate(468,405)" d="m0 0 6 1 4 4-1 5-10-1-6 1v-4l4-4z" fill="#DEDFDF"/>
<path transform="translate(407,405)" d="m0 0h9l6 6v3l-10-1h-7l-1-1v-5z" fill="#E5E6E6"/>
<path transform="translate(296,927)" d="m0 0 3 4-1 1 2 1 2 5 2 10 2 5-4-1-5-5-1-2z" fill="#CECFCF"/>
<path transform="translate(308,976)" d="m0 0 6 2 31 4 10 2v1l-11-1-30-2-6-2-5 5 2-7z" fill="#939494"/>
<path transform="translate(499,965)" d="m0 0h12l10 2 13 2 7-2 1 4-1 6h-2l-4-4-16-4-16-2h-8z" fill="#757576"/>
<path transform="translate(912,457)" d="m0 0h1l1 18-2 8-2 2-3-2v-16h3l1 1z" fill="#929393"/>
<path transform="translate(905,443)" d="m0 0h7v6l-3 4-7 1-1-1v-8z" fill="#C8C9C9"/>
<path transform="translate(355,985)" d="m0 0 5 1 7 3 1-4 3 5 11 11 2 1-1 3-11-8-9-7-8-4z" fill="#9B9B9C"/>
<path transform="translate(291,675)" d="m0 0h1v6h7l2 3v4h-3v2l-5 1v10h-1z" fill="#727273"/>
<path transform="translate(359,961)" d="m0 0h24l15 3-1 2h-9v2l-7-2 1-2-5-1-18-1z" fill="#767576"/>
<path transform="translate(725,172)" d="m0 0 1 3-9 15-5 8-1-4 3-8 9-12z" fill="#7C7B7C"/>
<path transform="translate(971,1211)" d="m0 0 6 1 25 10 16 4v1h-7l-15-4-16-7-7-3z" fill="#757475"/>
<path transform="translate(441,1093)" d="m0 0 7 1 1 4-2 7-3-3-1 7h-1v-10l-3-1v-4z" fill="#FCFCFC"/>
<path transform="translate(536,1029)" d="m0 0 4 3v3l-9 3v4h8l-2 4-6-1h-3l-1-2-2-1 1-4h-2v-2l10-1 3-1-2-1z" fill="#A0A1A1"/>
<path transform="translate(732,965)" d="m0 0 8 1 3 6 6 8 8 6h-3l-9-6-8-10-2-3h-6z" fill="#8C8D8D"/>
<path transform="translate(448,1100)" d="m0 0h1v19l-1 11h-1l-1-19-3-2v-7l2-1 1 2z" fill="#C8C9C9"/>
<path transform="translate(431,1293)" d="m0 0 13 1v3h-23l-2-2 2-1z" fill="#737273"/>
<path transform="translate(1e3 1015)" d="m0 0 4 2 26 20-2 1-14-10-12-9z" fill="#858585"/>
<path transform="translate(394,1101)" d="m0 0 3 1v11l-2 5-4-2 1-4h2v-6h-2v-4z" fill="#F8F8F8"/>
<path transform="translate(273,238)" d="m0 0h1l-1 17-1 14-1 5h-1v-20l2-15z" fill="#858485"/>
<path transform="translate(927,197)" d="m0 0h1l-1 32h-3v-11z" fill="#A0A1A1"/>
<path transform="translate(302,918)" d="m0 0 2 4 2 5 2 12v9h-1l-3-13-2-10z" fill="#7D7B7C"/>
<path transform="translate(269,1097)" d="m0 0h2v12l2 1v15l-2 3-1-5z" fill="#949595"/>
<path transform="translate(284,191)" d="m0 0h3l-1 6-3 9h-2l-1 8h-1v-8z" fill="#7A797A"/>
<path transform="translate(911,395)" d="m0 0 5 1-1 4-4 7h-3l1-9z" fill="#CACBCB"/>
<path transform="translate(393,1137)" d="m0 0 4 5 2 4v5l-3-1-2-3v-3h-2v-2h-2l1-4z" fill="#F3F3F3"/>
<path transform="translate(1090,1217)" d="m0 0 3 1-15 5-12 3h-4v-2l13-3 1-1z" fill="#8F8F90"/>
<path transform="translate(592,718)" d="m0 0h1v10l-3 15h-1l-1-17 4-1z" fill="#868687"/>
<path transform="translate(580,914)" d="m0 0h1l-1 16-2 10-2-1v-7z" fill="#777677"/>
<path transform="translate(272,530)" d="m0 0 2 4 2 10v10l-2-1-2-8z" fill="#2D2D2E"/>
<path transform="translate(972,1011)" d="m0 0 9 2 3 3-3 4-2-2-4-1-4-3z" fill="#E6E6E6"/>
<path transform="translate(511,385)" d="m0 0h3v2h3v2l4 2-12 1-2-2 3-1z" fill="#FBFBFB"/>
<path transform="translate(915,366)" d="m0 0h6v16h-1l-1-11-4 1-2-1 1-4z" fill="#aaa"/>
<path transform="translate(911,454)" d="m0 0h2l-1 14-2 3-2-5-1-4z" fill="#A6A7A7"/>
<path transform="translate(912,430)" d="m0 0 2 4 2-1v4h-2l-1 17-1-2-2-1 2-8-4-1h4z" fill="#7C7C7D"/>
<path transform="translate(535,1036)" d="m0 0 4 1-1 6-7-1-1-4z" fill="#605F60"/>
<path transform="translate(385,1106)" d="m0 0h4l-2 5-2 2h-5v-5z" fill="#FAFAFA"/>
<path transform="translate(550,1034)" d="m0 0h1v13l-2 7-2 1 1-6-1-3 2-11z" fill="#A0A1A1"/>
<path transform="translate(593,703)" d="m0 0h1l-1 15-1 7h-2l1-16z" fill="#191819"/>
<path transform="translate(430,490)" d="m0 0 1 2 4 1 4 3-1 3-4 1-4-4z" fill="#F4F4F4"/>
<path transform="translate(502,1132)" d="m0 0 4 4v3h-2l-1 18h-1z" fill="#B0B1B1"/>
<path transform="translate(962,1069)" d="m0 0 5 5 1 3h-7l-10-2v-1h10l3-2h-2z" fill="#A9AAAA"/>
<path transform="translate(714,982)" d="m0 0h1l2 12-7 1-3 4 1-6 3-4 1 4h3l-2-9z" fill="#8A8A8A"/>
<path transform="translate(448,326)" d="m0 0h16l10 3-4 1-10-1-2-1-10-1z" fill="#F9FAFA"/>
<path transform="translate(313,346)" d="m0 0 1 4h2l-1 5 1 3-5 2 1-9z" fill="#A1A1A2"/>
<path transform="translate(811,110)" d="m0 0 4 1-4 4-5 2-3-1 4-4z" fill="#eee"/>
<path transform="translate(719,180)" d="m0 0v3l-5 10-2 5-1-4 3-8z" fill="#737374"/>
<path transform="translate(431,1293)" d="m0 0 13 1v3l-16-1z" fill="#868687"/>
<path transform="translate(710,252)" d="m0 0h2l-1 4-1 1h-9v-2z" fill="#1B1A1B"/>
<path transform="translate(504,1139)" d="m0 0h3v9h-2l-2 2v-8z" fill="#F5F5F5"/>
<path transform="translate(560,992)" d="m0 0h1l1 9-6-3v-2h-8v-1h11z" fill="#9D9E9E"/>
<path transform="translate(914,477)" d="m0 0h1v16l-1 9h-1l-1-15h1z" fill="#838383"/>
<path transform="translate(971,1006)" d="m0 0 5 3 2 3-4 1-4-1-1-3z" fill="#C8C9C9"/>
<path transform="translate(527,1046)" d="m0 0h5l2 2-1 4-6-2z" fill="#191819"/>
<path transform="translate(626,276)" d="m0 0h6l-1 7-3-1-3-5z" fill="#7E7F7F"/>
<path transform="translate(548,1048)" d="m0 0 1 3-2 6h-3l-3 3-2-1 5-6z" fill="#969697"/>
<path transform="translate(916,450)" d="m0 0h1v15l-1 7h-1l-1-13 1-1z" fill="#A3A3A3"/>
<path transform="translate(545,1055)" d="m0 0 1 4-5 4h-3l-1-3 5-2z" fill="#8B8B8C"/>
<path transform="translate(967,991)" d="m0 0 5 2 1 4h2l-1 2-9-2 2-1 1-2 3 2v-2l-4-2z" fill="#999A9A"/>
<path transform="translate(299,682)" d="m0 0 2 2v4h-3v2l-5 1v-5h5z" fill="#7D7B7C"/>
<path transform="translate(508,387)" d="m0 0h2v2l-2 1 7 2v1l-12 1 2-4z" fill="#AFAFB0"/>
<path transform="translate(284,191)" d="m0 0h3l-1 6-2 3h-2l1-7z" fill="#6C6C6D"/>
<path transform="translate(708,1068)" d="m0 0 1 3h2l2 9v3l-3-4-2-6z" fill="#8F8F90"/>
<path transform="translate(327,362)" d="m0 0 2 4-2 5-3 3 1-7z" fill="#949595"/>
</svg>
