<?xml version="1.0" encoding="UTF-8"?>
<svg version="1.1" viewBox="0 0 1376 1376" width="344" height="344" xmlns="http://www.w3.org/2000/svg">
<path transform="translate(0)" d="m0 0h1376v1376h-1376z" fill="#FDFDFD"/>
<path transform="translate(629,144)" d="m0 0h15l16 4 30 11 20 7 35 13 24 11 10 5v2l9 3v2h3v2l5 1v2l4 1 11 7 14 11 11 9 12 11 16 16 7 8 12 14 11 16 15 25 13 25 9 24 8 27 4 19 9 50 4 15 12 26 13 26 11 24 8 19 11 36 9 35 8 36 3 19 3 28 2 34v19l32-2 9-3-5 1 4-5-2-1 3-6 9-3h8l8 7 1 7 12-1 20-3 13-4 11-7 9-9 8-12 9-9 10-5 8 2 9 6 6 7 8 13 8 17 4 13 1 8v29l-4 30-2 6-3 25v10l-1 5v17l-3 19-6 16-6 11-9 12-2 3h-2v2l-9 6-7 1-12 8-10 7-10 5-16 6-9 4-18 6-13 4-9 3-18 5-33 7-24 4-48 3h-84l-40-4-36-5-20-4-36-6-36-7-16-4-21-7-19-6-12-5-8-4-13-5-5-3h-5l-5 1-10-4-18-13-14-11-12-12-6-10-10-16-5-14-1-5-1-15v-11l1-6 1-62 3-14 7-11 9-13 8-11 7-9 14-10 9-3h6l9 6 12 9 22 12 18 6 12 3 20 3 50 4 19 1h12l-3-5 1-2-4-2-4-4v-2l-4-2v-2l-6-2v-2l-4-1-8-5-7-1-4-2-2-3-7-1v-2l-14-2-8-3-9-2-10-1 2-2-10-2-29-1-2 1-1-1-3 1-1-1-24 3-22 3-19 5-16 5-16 6-21 10-14 10-10 9-5 5-10 11-12 18-10 19-7 20-3 15-2 25-1 32-3 13-7 14-11 13-13 9-9 4-16 3-11 1h-126l-10-4-11-8-10-10-7-8-10-12-2-5-1-14-1-58v-65l2-89 4-37 6-36 15-65 8-29 9-26 12-26 14-28 10-22 6-21 7-35 7-19 17-35 12-21 12-19 12-17 9-10 32-32 8-7 14-12 17-13 18-12 23-13 6-3h4v-2l12-5 10-5 35-12 23-6 14-2 14-1h23l5 1h10z" fill="#D4D5D6"/>
<path transform="translate(1195,732)" d="m0 0 8 2 9 6 6 7 8 13 8 17 4 13 1 8v29l-4 30-2 6-3 25v10l-1 5v17l-3 19-6 16-6 11-9 12-2 3h-2v2l-9 6-7 1-12 8-10 7-10 5-16 6-9 4-18 6-13 4-9 3-18 5-33 7-24 4-48 3h-84l-40-4-36-5-20-4-36-6-36-7-16-4-21-7-19-6-12-5-8-4-13-5-5-3h-5l-5 1-10-4-18-13-14-11-12-12-6-10-10-16-5-14-1-5-1-15v-11l1-6 1-62 3-14 7-11 9-13 8-11 7-9 14-10 9-3h6l9 6 12 9 22 12 18 6 12 3 20 3 50 4 19 1v2h24l18 1 75 1 13 3 13 5 11 5 4 1 12-6 5-3 15-5 16-2 22-1 57-1 24-2 9-3-5 1 4-5-2-1 3-6 9-3h8l8 7 1 7 12-1 20-3 13-4 11-7 9-9 8-12 9-9z" fill="#15161B"/>
<path transform="translate(1195,732)" d="m0 0 8 2 9 6 6 7 8 13 8 17 4 13 1 8v29l-4 30-2 6-3 25v10l-1 5v17l-3 19-6 16-6 11-9 12-2 3h-2v2l-3 1-1-4-7 1h-4l-1-1v-23l-4-5-1-4v-18l2-12 4-20 1-6 2-6 3-7 2-1 3-6 3-5 3-9v-12l-3-11-1-1v-5h-2l-3-11-2-10-1-3-5-2-5-9-4-6-1-7 4-8v-6l-7 2v2h-2v2l-5 3h-3v2l-12 2-5 1v2l-26 4-7 1-2-2-4-1h-22l-17 1 3-2 6-2-5 1 4-5-2-1 3-6 9-3h8l8 7 1 7 12-1 20-3 13-4 11-7 9-9 8-12 9-9z" fill="#515157"/>
<path transform="translate(674,836)" d="m0 0h6l5 3 3 4v2h2l6 14 4 11 3 16 1 21h3v-11l1-7h2l1-12 2-12 4-7 7-6h8l14 7 12 11 7 9 5 13 2 6v21l-2 11-3 27v11l2 12 3 8 4 17 1 8-4-1-14-13-3-5-5-5-6-8v-2h-2l-1-3-2-1-1-3-2-1-4-7-2-1-4-7v-2h-2l-1-5h-2l-2-7h-2l-8-16-4-7h-2l-1 3h-6v-2h-13l-7-6-5-9v-2h-2l-1-5h-2l-8-16-3-5v-13l2-5h2l1-5 3-1 1-7 4-5z" fill="#D2D3D4"/>
<path transform="translate(591,722)" d="m0 0 29 1 52 2 11 1 3 2 8 1 4 2v-2l7 1 5 2 1 2 16 5 25 11 9 6 12 11 8 7v2h2l4 7 5 2v2l3 1 20 1 49 1v1h-63l-42-2v-1l12-1-3-5 1-2-4-2-4-4v-2l-4-2v-2l-6-2v-2l-4-1-8-5-7-1-4-2-2-3-7-1v-2l-14-2-8-3-9-2-10-1 2-2-10-2-29-1-2 1-1-1-3 1-1-1-24 3-22 3-19 5-16 5-16 6-21 10-14 10-10 9-5 5-10 11-12 18-10 19-7 20-3 15-2 25-1 23-2 13h-2v2l-3 1h-8l-1-7v-41l2-21 4-18 6-15 10-19 5-10h2l2-5 4-7 6-5 16-16 15-12h2v-2h2l1-5 12-7 17-9 4-3 7-2 10-4 14-4 21-4z" fill="#848991"/>
<path transform="translate(855,919)" d="m0 0h9l16 5 12 9 10 11 9 13 5 8v48l-2 3-3 1h-28l-12-3-13-2-11-4-7-4-4-11v-30l3-19 3-8 7-11 4-5z" fill="#D3D4D5"/>
<path transform="translate(971,919)" d="m0 0h15l6 8 4 9 2 13v18l-2 29-2 7-10 6-5 2-7 1-5 2-12 2-1 1h-30l-4-2v-42l4-10 9-11 12-14 10-9 10-7z" fill="#D3D4D5"/>
<path transform="translate(1092,847)" d="m0 0h6l8 9 5 14 2 9 1 1 2 19v17l-5 13-5 8-4 10-1 2h-2l-1 5-1 2h-2v3h-2l-2 6h-2l-2 6h-2l-1 5-2 1-3 7h-2l-2 5-7 11-8 11-3 2h-3l2-16 3-13 2-11 1-1v-25l-2-18v-36l5-16h2l2-7 8-11 11-11z" fill="#D2D3D4"/>
<path transform="translate(591,743)" d="m0 0h6l9 6 8 6-1 2-5-1-7-2-3-1-14 1-3 1-1 3h-2l-1 8-3 4h-2l-1 6-3 5-3 8-1 6-4 10-4 12 1 10 5 13 2 6 2 4v3h2l3 5 1 10-1 2 2 1 1 3 1 9 2 5-1 4 1 8-2 9-4 8-3 7-3 1-1 5h-2l-2 4-2 3v7l-1 3-4-1-2-5-3 1-9-15-5-14-1-5-1-15v-11l1-6 1-62 3-14 7-11 9-13 8-11 7-9 14-10z" fill="#515157"/>
<path transform="translate(634,735)" d="m0 0 1 2 4-2h2l32 1 12 3 3 2 15 4 16 4v2h7l2 4 3-1 1 2 7 1 9 6 3 1v2l4 1 6 5 6 7 2 1 1 4 3 4h-14l-47-3-22-2-25-4-20-6-16-8-14-8-16-12-2-1-11 1-6 2-13 2-11 3-3-1 16-5 19-5 27-4z" fill="#FCFCFC"/>
<path transform="translate(789,904)" d="m0 0h10l9 7 14 19 8 13 4 12 2 44-1 2h-9l-5-2-12-3-15-6-11-6-3-3-2-5-2-7-2-19-1-2v-24l4-10 6-7z" fill="#D1D3D4"/>
<path transform="translate(1036,903)" d="m0 0h6l10 7 6 12v16l-5 34-3 9-2 3-3 1-1 2-9 4-7 2-3 2-14 4-5 2h-7v-31l2-6 2-11 8-15 15-23 7-10z" fill="#D3D4D5"/>
<path transform="translate(591,722)" d="m0 0 29 1 52 2 11 1 3 2 8 1 4 2v-2l7 1 5 2 1 2 16 5 25 11 9 6 12 11 8 7v2h2l4 7 5 2v2l3 1 20 1 49 1v1h-63l-42-2v-1l12-1-3-5 1-2-4-2-4-4v-2l-4-2v-2l-6-2v-2l-4-1-8-5-7-1-4-2-2-3-7-1v-2l-14-2-8-3-9-2-10-1 2-2-10-2-29-1-2 1-1-1-3 1-1-1-24 3-22 3-19 5-16 5-16 6-21 10-7 4-1-2 4-6 9-6 19-8 9-2 1-3 10-4 8-2 20-4 11-2 2-2 30-3h-23l-16-1-6 2h-14l-8 3h-6v2h-2v4l-12 4-12 5-16 7-11 6-3 1 1-5 12-7 17-9 4-3 7-2 10-4 14-4 21-4z" fill="#82878F"/>
<path transform="translate(1188,749)" d="m0 0h6v8l-5 10-2 3-1 11 2 1 6 9 3 2 6 12 3 9 2 5 1 9 3 9 1 5v13l-3 6-3 5-5 7-4 9-4 8v10l-2 14-1 19-1 3h-2l2 9 4 7 1 1 1 11 2 1v2h2l-1 14 3-2-1 4-3 1-1-4-7 1h-4l-1-1v-23l-4-5-1-4v-18l2-12 4-20 1-6 2-6 3-7 2-1 3-6 3-5 3-9v-12l-3-11-1-1v-5h-2l-3-11-2-10-1-3-5-2-5-9-4-6-1-7 4-8v-6l-7 2v2h-2v2l-5 3h-3v2l-12 2-5 1v2l-26 4-7 1-2-2-4-1h-22l-17 1 3-2 6-2-5 1 4-5-2-1 3-6 9-3h8l8 7 1 7 12-1 20-3 13-4h6 3l5-2v-2l4-1 8-5 7-8 2-3h2l1-3z" fill="#45464C"/>
<path transform="translate(1199,733)" d="m0 0 6 2 9 7 8 11 11 21 5 16 1 8v29l-4 30-2 6-3 25v10l-1 5v17l-3 19-6 16-3 5-4-1 1-9h2v-6l1-2-2-1v-2h2l-4-5 1-8-4-1-1-9 2-14 1-2 3-26 2-7 3-7 2-8 2-1 5-16 2-12 1-2h-2l-1-2v-9l-4-4v-9l-2-7 1-2h-2l-1-9h-2l-2-8-4-2-5-9-1-5-4-8-2-7-2-4z" fill="#757880"/>
<path transform="translate(674,836)" d="m0 0h6l5 3 3 4v2h2l6 14 4 11 3 16 1 21h3v11l-3 1-1 3h-6v-2h-13l-7-6-5-9v-2h-2l-1-5h-2l-8-16-3-5v-13l2-5h2l1-5 3-1 1-7 4-5z" fill="#D1D2D3"/>
<path transform="translate(1195,732)" d="m0 0 4 1 4 8 2 8 2 5 3 9 2 2 3 5 4 4v5h2l1 2v7h2l2 11v7l4 4v11h2l-1 11-5 15-2 5h-2l-2 10-3 6-3 22-1 10-1 2-2 18 1 5 3 1v8l3 3-1 4 1 3-1 6h-2l1 6v3l1 4-7 10-3-3 2-4v-7l-1-3v-5l-1-3h-2l-2-9-2-2v-23l1-2v-7l2-11 1-14 6-9 4-13h2l2-5 3-11 2-5-3-13-1-8h-2v-7l-4-7-3-9-6-10-1-3-4-1-3-17 3-8 1-8-2-6h-6l-2-2-1 4-9 9h-2l-1 5-7 6-1 2h-3v2l-6 3v-3l8-8 8-12 9-9z" fill="#626268"/>
<path transform="translate(1134,831)" d="m0 0 6 1 8 11 9 14 1 2v15l-6 17-8 19-7 6h-6v2l-7 2h-6l1-28 2-28 3-21h2v-3h2l1-5z" fill="#D1D2D3"/>
<path transform="translate(568,756)" d="m0 0m-1 2 1 3h-2v7l-4 4-1 5h-2v5l-4 2-1 6-2 1-2 7-4 9v13l3 11 2 8v8h2l2 10v15l1 4v14l1 13-5 7-1 5h-4l1 14-1-2h-2l-1 2-4-2-2-3-4-11-1-5-1-15v-11l1-6 1-62 3-14 7-11 9-13 8-11z" fill="#626268"/>
<path transform="translate(600,748)" d="m0 0 10 4 4 4-4 1-5-2-7-2-14 1-3 1-1 3h-2l-1 8-3 4h-2l-1 6-3 5-3 8-1 6-4 10-4 12 1 10 5 13 2 6 2 4v3h2l3 5 1 10-1 2 2 1 1 3 1 9 2 5-1 4 1 8-2 9-4 8-3 7-3 1-1 5h-2l-2 4-2 3v7l-1 3-4-1-2-5 2-4-1-8h2l1-7 7-6 3-8 1-5-1-24-1-7v-11l-2-10-2-1-2-7-2-2-4-14v-21l8-17 2-5 5-13 8-12h2l2-7 3-3h8l9 1z" fill="#45464C"/>
<path transform="translate(1201,734)" d="m0 0 6 2 9 8 10 16 8 17 4 13 1 8v29l-4 30-2 6-3 25v10l-1 5v17l-3 19h-3v-8h-1l-2-11-4-10 2-18 4-9 1-7 5-29 6-15 3-21-3-11 1-4-3 1-3-12-5-10-4-12-3-10-5-8-1-3-6-3v-2l-4-2z" fill="#858A92"/>
<path transform="translate(621,334)" d="m0 0h15l40 2 14 2 9 2 14 3 17 5 2 1v2h6l1 4-8-1-16-3-25-5-27-4-10-1h-30l-34 3-28 4-16 2 1-6 14-3 16-3 27-3z" fill="#FEFEFE"/>
<path transform="translate(555,774)" d="m0 0 2 1-3 3-2 5h-2l-2 6h-2l-1 5h-3l-1 6 1 7-1 2 1 19 2 6 2 16v14h-2l2 5v11l2 8-1 7-3 3h-4l1 2v10l-1 2-6 1-1-5-1-15v-11l1-6 1-62 3-14 7-11 9-13z" fill="#757880"/>
<path transform="translate(623,318)" d="m0 0h23l28 2 36 6 29 7 23 7 19 7 6 4v2h-12l-7-3-16-6-15-5-31-7-27-5-24-2-20-1-40 2h-11l-1-3 6-2 17-2z" fill="#FEFEFE"/>
<path transform="translate(592,726)" d="m0 0 16 1h23l1 2-31 3-2 2-28 5-5 2-10 2-7 3-17 6-26 13-5 4-5 3-3 1v2h-2v2l-8 7-8 9h-2v2h-2v2h-2v3h-2l-2 5h-2l-1 4-3 4h-2l-1 2-1-2 7-14 6-7 8-7 8-9 15-12 1-3 7-3 17-9 15-6 15-5h2v-4h2v-2l12-3 2-1h16z" fill="#767981"/>
<path transform="translate(637,730)" d="m0 0 21 1 8 2 13 1 19 4 4 2v2h7v2l9 2 19 6 12 6v2l4 1 13 11 10 9 7 7h-10l-5-5 1-3-4-2-4-4v-2l-4-2v-2l-6-2v-2l-4-1-8-5-7-1-4-2-2-3-7-1v-2l-14-2-8-3-9-2-10-1 2-2-10-2-29-1-2 1-1-1-3 1-1-1-24 3-25 3 2-2 11-2 13-4 6 1v-2l5-2z" fill="#969BA2"/>
<path transform="translate(1052,786)" d="m0 0h16l12 2-1 4-9 1v-2h-2v2l-9 2-28 1h-62l-6-1-7 1-5-1-1-2 7-1 13-1h63v-2l-67 2h-11v-1l10-1 22-1 57-1z" fill="#4C4D54"/>
<path transform="translate(498,763)" d="m0 0 2 1-14 12-6 5-7 8-7 6-8 11-9 15-4 8-6 14-6 21-2 21-1 29 1 17 1 3 7-4 2-2-1 8h-2v2l-3 1h-8l-1-7v-41l2-21 4-18 6-15 10-19 5-10h2l2-5 4-7 6-5 16-16 10-8z" fill="#969BA2"/>
<path transform="translate(591,722)" d="m0 0 29 1 27 1v1l-36 2h-19l-6 2h-14l-8 3h-6v2h-2v4l-12 4-12 5-16 7-11 6-3 1 1-5 12-7 17-9 4-3 7-2 10-4 14-4 21-4z" fill="#969BA2"/>
<path transform="translate(1235,832)" d="m0 0h1l-1 8-3 15-2 4-1 12-3 8-1 9-1 4v13l-1 1 2 1 2 16v11l-1 5h-3v-8h-1l-2-11-4-10 2-18 4-9 1-7 5-29 4-10z" fill="#848991"/>
<path transform="translate(670,729)" d="m0 0h24l4 2v-2l7 1 5 2 1 2 16 5 10 4 3 3 14 9 7 6 1 3-6-2-9-6-15-8-14-5-3-2-9-1-4-2-25-6-7-2z" fill="#777B83"/>
<path transform="translate(536,803)" d="m0 0h1l2 23 1 31v21l-1 2v8h-2v-2l-3 1-1 6h-1v-11l1-6 1-62z" fill="#848991"/>
<path transform="translate(1236,832)" d="m0 0h2l-3 25-2 6-3 25v10l-1 5v17l-1 8h-1l-2-15v-6l-3-1 2-1-1-10v-6l1-3 3-14 1-1 1-12 3-8z" fill="#969BA2"/>
<path transform="translate(1086,768)" d="m0 0h8l8 7 1 7 2 1h-10v-2h-6v2l-5-1-1 2-8 2h-7l3-2 6-2-5 1 4-5-2-1 3-6z" fill="#767981"/>
<path transform="translate(1022,744)" d="m0 0 2 3 2 10 1 15 8 1 1 13 8 1v1h-24l1-14z" fill="#969BA2"/>
<path transform="translate(634,735)" d="m0 0 1 2 4-2h2l32 1 12 3 3 2 9 2v1l-12-1-20-3-13-1h-23l-26 2-12 3-11 3-13 2-11 3-3-1 16-5 19-5 27-4z" fill="#D5D6D7"/>
<path transform="translate(573,743)" d="m0 0h9v1l-24 6-14 5-12 5-19 10-4 2-1-2 4-6 9-6 19-8 11-3 2 1 19-4z" fill="#959AA1"/>
<path transform="translate(592,726)" d="m0 0 15 1v1l-12 1-5 2-16 3-9 3-7 2-4-1h2v-4h2v-2l12-3 2-1h16z" fill="#848991"/>
<path transform="translate(1238,827)" d="m0 0h1v9l-4 31-3 30-2 24-1 7h-1v-28l1-2v-12l3-23 2-6z" fill="#D5D6D7"/>
<path transform="translate(439,874)" d="m0 0h2v8l1 4v17l-2 1v11l-1 3h-3l-1-10v-14l2-9 1-4z" fill="#757880"/>
<path transform="translate(970,791)" d="m0 0h48l8 1 2 3h-22v-1h-41l-6 2-9-1v-2l7-1z" fill="#5A5B61"/>
<path transform="translate(498,763)" d="m0 0 2 1-14 12-6 5-7 8-7 6-8 11-9 15-4 8-3 7h-2l1-5 10-19 2-4h2l2-5 4-7 6-5 16-16 10-8z" fill="#969BA2"/>
<path transform="translate(1086,768)" d="m0 0h3l1 2h2l-1 3-3 1-6 7h-2l-1 3-4 2h-7l3-2 6-2-5 1 4-5-2-1 3-6z" fill="#8C9198"/>
<path transform="translate(965,793)" d="m0 0h46v1l20 1v1h-62l-5-1z" fill="#494A50"/>
<path transform="translate(734,756)" d="m0 0 6 2 11 6v2l4 1 6 5 6 7 2 1 1 4 3 4h-4l-3-5-10-10-10-7-8-5-6-3z" fill="#D4D5D6"/>
<path transform="translate(748,749)" d="m0 0 6 2 13 10 9 8 5 5v2h2l4 7 5 2v2l3 1v1h-7l-2-1-2-5-9-10v-2l-4-2-5-5-7-6v-2l-4-2-7-4z" fill="#969BA2"/>
<path transform="translate(534,814)" d="m0 0h1l2 23v18l-1 18-2 9h-1z" fill="#969BA2"/>
<path transform="translate(600,748)" d="m0 0 10 4 4 4-4 1-5-2-7-2-14 1-3 1-1 3-3-1 3-6 4-2 15 1z" fill="#45464C"/>
<path transform="translate(591,743)" d="m0 0h6l9 6-1 2-4-2-2 2-15-1-2-2v-2z" fill="#595A60"/>
<path transform="translate(1123,846)" d="m0 0h1l-1 10-2 19-2 36-1 9-3-1 1-19h1l3-38z" fill="#6D6F76"/>
<path transform="translate(1224,758)" d="m0 0 3 4 7 15 4 13v7l-2-2-3-8-2-7-4-11-4-8z" fill="#969BA2"/>
<path transform="translate(1018,791)" d="m0 0h17l8 1v1h6l2-1h7l1 3h-31l-5-1v-1l-5-1z" fill="#525258"/>
<path transform="translate(1185,737)" d="m0 0h2l-2 5-14 16-4 5-4 1 6-8 8-11z" fill="#7E8289"/>
<path transform="translate(636,689)" d="m0 0h22l36 9-4 1-24-5-14-3-16-1z" fill="#8D929A"/>
<path transform="translate(1087,775)" d="m0 0h8l3 2-3 1-1 3h-5v2l-5-1-1 2-4-1 6-7z" fill="#626268"/>
<path transform="translate(521,218)" d="m0 0h10l2 2v3l-9 2h-2v-2h-4l1-4z" fill="#FEFEFE"/>
<path transform="translate(1086,768)" d="m0 0h3l1 2h2l-1 3-3 1-6 7-2-4-3-1 1-4h6v-3z" fill="#82868E"/>
<path transform="translate(968,800)" d="m0 0h10l3 1v2l-32 1 2-2z" fill="#525258"/>
<path transform="translate(1024,774)" d="m0 0h2l1 13h17v1h-22l1-12z" fill="#7F848B"/>
<path transform="translate(498,763)" d="m0 0 2 1-14 12-6 5-7 8-4 3 2-5 12-12 10-8z" fill="#90959C"/>
<path transform="translate(647,725)" d="m0 0h28l10 2 1 2-15-1-24-2z" fill="#969BA2"/>
<path transform="translate(555,774)" d="m0 0 2 1-3 3-2 5h-2l-2 6h-2l-1 5h-3l-2 6-3 2 2-5 10-16z" fill="#787C83"/>
<path transform="translate(705,747)" d="m0 0h7l7 2v2h7l2 4 3-1 1 3-10-3-17-6z" fill="#D5D6D7"/>
<path transform="translate(1097,785)" d="m0 0 6 2-2 3-12 1-1-2 3-3z" fill="#45464C"/>
<path transform="translate(1010,791)" d="m0 0 16 1 2 3h-22v-1h5z" fill="#606066"/>
<path transform="translate(1083,781)" d="m0 0 6 2v-2h6v2h13v1l-18 1h-13v-1h6z" fill="#515157"/>
<path transform="translate(600,748)" d="m0 0 10 4 4 4-4 1-5-2-7-2z" fill="#44454B"/>
<path transform="translate(1177,751)" d="m0 0 1 4-8 7-1 2h-3v2l-6 3v-3l5-3 5-5 5-6z" fill="#63646A"/>
<path transform="translate(698,729)" d="m0 0 7 1 5 2 1 2 11 3v1l-8-1-8-2v-2l-9-1z" fill="#93989F"/>
<path transform="translate(596,740)" d="m0 0h3v2l-15 4-4 1v-2l8-4z" fill="#D6D7D8"/>
<path transform="translate(498,780)" d="m0 0 2 1-19 19v-3l9-10z" fill="#E6E7E7"/>
<path transform="translate(923,800)" d="m0 0h2v2l-8 4-9-3v-2l8 1z" fill="#EEEEEF"/>
<path transform="translate(1185,737)" d="m0 0h2l-2 5-5 5h-2l1-4z" fill="#767A82"/>
<path transform="translate(922,818)" d="m0 0 2 1-5 5-6-2-3-3h10z" fill="#58595F"/>
<path transform="translate(1051,792)" d="m0 0h7l1 3h-14l4-2z" fill="#4F4F55"/>
<path transform="translate(705,747)" d="m0 0h7l7 2-1 3-10-3z" fill="#D2D4D5"/>
<path transform="translate(596,744)" d="m0 0 5 1 5 5h-4l-5-2z" fill="#52545A"/>
<path transform="translate(573,743)" d="m0 0h9v1l-17 4-3-1 4-2z" fill="#969BA2"/>
<path transform="translate(1036,905)" d="m0 0h7v3l-5 1h-4z" fill="#FEFEFE"/>
<path transform="translate(544,789)" d="m0 0h2l-1 5h-3l-2 6-3 2 2-5z" fill="#7D8189"/>
<path transform="translate(476,782)" d="m0 0 3 1-9 9-1-2z" fill="#888D95"/>
</svg>
