<?xml version="1.0" encoding="UTF-8"?>
<svg xmlns="http://www.w3.org/2000/svg" xmlns:xlink="http://www.w3.org/1999/xlink" width="50px" height="50px" viewBox="0 0 50 69" version="1.1">
<g id="surface1">
<path style=" stroke:none;fill-rule:nonzero;fill:rgb(0%,0%,0%);fill-opacity:1;" d="M 0.0078125 0 L 49.992188 0 L 49.992188 69 L 0.0078125 69 Z M 0.0078125 0 "/>
<path style=" stroke:none;fill-rule:nonzero;fill:rgb(99.607843%,99.607843%,99.607843%);fill-opacity:1;" d="M 0.0078125 0 L 49.992188 0 L 49.992188 69 L 0.0078125 69 Z M 23.5625 0.707031 L 21.875 0.808594 L 20.050781 0.976562 L 18.699219 1.144531 L 17.582031 1.347656 L 16.570312 1.582031 L 15.65625 1.851562 L 14.777344 2.15625 L 13.832031 2.5625 L 13.289062 2.828125 L 12.582031 3.199219 L 11.972656 3.570312 L 11.332031 4.007812 L 10.757812 4.445312 L 10.382812 4.75 L 9.910156 5.15625 L 9.605469 5.457031 L 9.335938 5.695312 L 8.863281 6.199219 L 8.121094 7.007812 L 6.871094 8.253906 L 6.597656 8.492188 L 6.09375 8.960938 L 5.820312 9.199219 L 5.449219 9.535156 L 5.179688 9.769531 L 4.808594 10.109375 L 4.539062 10.34375 L 3.625 11.253906 L 3.320312 11.625 L 2.984375 12.0625 L 2.578125 12.667969 L 2.171875 13.375 L 1.867188 14.050781 L 1.53125 14.960938 L 1.226562 16.003906 L 0.988281 17.046875 L 0.785156 18.363281 L 0.6875 19.304688 L 0.617188 20.316406 L 0.585938 21.292969 L 0.585938 22.773438 L 0.652344 24.222656 L 0.785156 25.839844 L 1.058594 28.199219 L 1.261719 29.683594 L 1.460938 30.660156 L 1.699219 31.5 L 1.96875 32.277344 L 2.308594 33.050781 L 2.578125 33.589844 L 2.882812 34.164062 L 3.289062 34.804688 L 3.691406 35.375 L 4.773438 36.789062 L 5.179688 37.328125 L 5.382812 37.632812 L 5.179688 37.699219 L 4.671875 37.96875 L 3.964844 38.207031 L 3.59375 38.441406 L 3.390625 38.710938 L 3.289062 38.945312 L 3.253906 39.117188 L 3.253906 39.6875 L 3.390625 40.394531 L 3.558594 40.933594 L 3.558594 41.375 L 3.355469 41.640625 L 3.152344 41.8125 L 3.015625 42.046875 L 2.984375 42.214844 L 3.015625 42.71875 L 3.152344 43.292969 L 3.421875 43.96875 L 3.691406 44.4375 L 4.097656 45.011719 L 4.402344 45.382812 L 4.773438 45.820312 L 5.179688 46.292969 L 5.484375 46.5625 L 5.820312 46.628906 L 6.195312 46.527344 L 6.632812 46.226562 L 7.039062 45.886719 L 7.578125 45.550781 L 7.882812 45.449219 L 8.253906 45.449219 L 8.59375 45.585938 L 9.066406 45.886719 L 9.640625 46.292969 L 9.910156 46.425781 L 10.25 46.492188 L 10.6875 46.460938 L 11.128906 46.292969 L 11.433594 46.054688 L 11.703125 45.753906 L 11.835938 45.484375 L 11.804688 45.382812 L 11.632812 45.316406 L 11.433594 45.28125 L 10.082031 45.246094 L 9.675781 45.078125 L 9.574219 44.976562 L 9.503906 44.976562 L 9.4375 44.84375 L 9.335938 44.675781 L 9.945312 44.203125 L 10.621094 43.699219 L 11.230469 43.226562 L 11.804688 42.820312 L 12.613281 42.28125 L 13.1875 41.945312 L 13.695312 41.742188 L 14.507812 41.542969 L 15.621094 41.375 L 15.824219 41.40625 L 16.265625 41.710938 L 16.535156 41.945312 L 16.601562 42.082031 L 16.570312 42.316406 L 16.433594 42.519531 L 16.265625 42.789062 L 16.195312 43.023438 L 16.195312 43.429688 L 16.332031 43.933594 L 16.601562 44.675781 L 16.667969 44.910156 L 16.636719 45.214844 L 16.5 45.347656 L 16.296875 45.484375 L 16.164062 45.6875 L 16.128906 45.820312 L 16.164062 46.257812 L 16.398438 47.304688 L 16.738281 48.617188 L 17.074219 49.695312 L 17.144531 50.199219 L 17.378906 55.21875 L 17.820312 64.957031 L 17.886719 65.53125 L 18.023438 65.96875 L 18.222656 66.339844 L 18.496094 66.675781 L 18.765625 66.910156 L 19.203125 67.179688 L 19.644531 67.347656 L 19.8125 67.382812 L 20.183594 67.382812 L 20.386719 67.25 L 20.523438 66.976562 L 20.589844 66.40625 L 20.691406 64.820312 L 20.726562 63.980469 L 20.726562 57.007812 L 20.691406 54.445312 L 20.65625 52.792969 L 20.625 50.03125 L 20.554688 49.390625 L 20.421875 48.75 L 20.21875 48.144531 L 20.117188 47.910156 L 20.285156 47.875 L 21.265625 47.402344 L 21.367188 53.367188 L 21.433594 56.230469 L 21.605469 60.847656 L 21.875 67.382812 L 21.90625 67.6875 L 22.042969 67.886719 L 22.28125 67.988281 L 24.035156 68.089844 L 24.238281 67.957031 L 24.339844 67.789062 L 24.476562 67.046875 L 24.8125 62.363281 L 24.914062 60.578125 L 24.949219 59.835938 L 24.984375 58.453125 L 24.984375 54.648438 L 24.882812 48.550781 L 24.882812 47.671875 L 24.984375 47.472656 L 25.152344 47.371094 L 25.558594 47.371094 L 25.929688 47.402344 L 25.894531 49.59375 L 25.726562 58.589844 L 25.691406 60.949219 L 25.691406 64.113281 L 25.828125 66.675781 L 25.894531 67.585938 L 26.03125 67.921875 L 26.234375 68.089844 L 26.539062 68.191406 L 26.707031 68.226562 L 27.042969 68.226562 L 27.417969 68.089844 L 27.71875 67.820312 L 27.957031 67.347656 L 28.09375 66.808594 L 28.53125 62.328125 L 28.667969 60.339844 L 28.699219 59.464844 L 28.699219 52.660156 L 28.667969 50.265625 L 28.667969 47.101562 L 28.734375 46.933594 L 29.34375 46.730469 L 29.546875 46.695312 L 30.019531 46.695312 L 30.390625 46.832031 L 30.761719 47.066406 L 31.335938 47.472656 L 31.402344 47.472656 L 31.402344 47.539062 L 31.132812 47.570312 L 30.425781 47.808594 L 30.085938 48.042969 L 29.949219 48.246094 L 29.847656 48.617188 L 29.78125 50.300781 L 29.578125 57.511719 L 29.410156 64.25 L 29.410156 66.070312 L 29.511719 67.484375 L 29.578125 67.71875 L 29.746094 67.855469 L 30.019531 67.855469 L 30.929688 67.652344 L 31.472656 67.585938 L 31.945312 67.550781 L 32.25 67.417969 L 32.417969 67.28125 L 32.554688 67.011719 L 32.652344 66.4375 L 32.992188 63.070312 L 33.09375 61.488281 L 33.296875 57.140625 L 33.566406 50.941406 L 33.632812 50.402344 L 34.007812 49.796875 L 34.308594 49.257812 L 34.648438 48.449219 L 34.917969 47.570312 L 35.121094 46.664062 L 35.359375 45.449219 L 35.425781 44.976562 L 35.460938 44.238281 L 35.390625 43.628906 L 35.257812 43.125 L 35.222656 43.023438 L 35.222656 42.789062 L 35.359375 42.519531 L 35.558594 42.351562 L 36.371094 42.046875 L 37.589844 41.640625 L 38.433594 41.40625 L 38.941406 41.304688 L 39.445312 41.304688 L 39.917969 41.40625 L 40.394531 41.609375 L 40.832031 41.914062 L 41.070312 42.113281 L 41.339844 42.484375 L 41.507812 42.855469 L 41.574219 43.226562 L 41.574219 43.496094 L 41.472656 43.96875 L 41.273438 44.335938 L 40.96875 44.675781 L 40.832031 44.910156 L 40.832031 45.347656 L 40.96875 45.652344 L 41.171875 45.886719 L 41.507812 46.054688 L 41.847656 46.125 L 42.351562 46.125 L 42.859375 46.023438 L 43.265625 45.855469 L 43.671875 45.617188 L 44.144531 45.246094 L 44.753906 44.777344 L 45.394531 44.304688 L 45.800781 43.933594 L 46.070312 43.664062 L 46.441406 43.160156 L 46.679688 42.753906 L 46.949219 42.082031 L 47.117188 41.40625 L 47.183594 40.933594 L 47.183594 39.789062 L 47.050781 39.453125 L 46.8125 39.183594 L 46.476562 38.945312 L 46.375 38.710938 L 46.375 38.441406 L 46.679688 36.722656 L 47.21875 34.09375 L 48.164062 29.714844 L 48.773438 26.785156 L 49.113281 25.03125 L 49.246094 24.054688 L 49.347656 22.875 L 49.347656 20.71875 L 49.246094 19.472656 L 49.113281 18.53125 L 48.910156 17.6875 L 48.503906 16.476562 L 48.03125 15.398438 L 47.386719 14.082031 L 46.914062 13.171875 L 46.578125 12.601562 L 46.136719 11.894531 L 45.699219 11.253906 L 45.359375 10.78125 L 45.054688 10.375 L 44.683594 9.90625 L 44.3125 9.46875 L 44.078125 9.199219 L 43.773438 8.859375 L 43.535156 8.589844 L 42.183594 7.242188 L 41.914062 7.007812 L 41.574219 6.703125 L 41.203125 6.402344 L 40.765625 6.03125 L 39.546875 5.121094 L 38.972656 4.71875 L 38.09375 4.144531 L 37.25 3.640625 L 36.507812 3.234375 L 35.730469 2.828125 L 34.816406 2.425781 L 33.703125 1.988281 L 32.453125 1.582031 L 31.574219 1.347656 L 30.492188 1.113281 L 29.410156 0.945312 L 28.125 0.808594 L 27.214844 0.742188 L 26.503906 0.707031 Z M 23.5625 0.707031 "/>
<path style=" stroke:none;fill-rule:nonzero;fill:rgb(99.607843%,99.607843%,99.607843%);fill-opacity:1;" d="M 45.226562 23.683594 L 45.5625 23.683594 L 45.800781 23.785156 L 45.933594 23.953125 L 46.035156 24.222656 L 46.105469 24.796875 L 46.105469 26.515625 L 46.003906 27.390625 L 45.800781 28.335938 L 45.597656 29.042969 L 45.023438 30.691406 L 44.683594 31.5 L 44.378906 32.007812 L 44.042969 32.445312 L 43.636719 32.847656 L 43.128906 33.21875 L 42.421875 33.589844 L 41.507812 33.894531 L 39.917969 34.332031 L 38.601562 34.632812 L 37.214844 34.90625 L 35.796875 35.105469 L 34.816406 35.207031 L 33.804688 35.273438 L 32.519531 35.273438 L 31.675781 35.171875 L 30.726562 34.972656 L 29.746094 34.667969 L 28.632812 34.230469 L 27.753906 33.828125 L 27.179688 33.554688 L 26.839844 33.320312 L 26.640625 33.152344 L 26.640625 33.085938 L 27.113281 32.816406 L 28.160156 32.410156 L 29.105469 32.007812 L 30.289062 31.46875 L 31.640625 30.792969 L 32.382812 30.390625 L 33.160156 29.953125 L 34.105469 29.378906 L 34.785156 28.976562 L 35.558594 28.46875 L 36.574219 27.796875 L 37.25 27.324219 L 37.824219 26.917969 L 39.042969 26.042969 L 39.546875 25.707031 L 40.191406 25.335938 L 40.832031 25 L 41.710938 24.628906 L 42.554688 24.324219 L 43.601562 24.023438 L 44.480469 23.820312 Z M 45.226562 23.683594 "/>
<path style=" stroke:none;fill-rule:nonzero;fill:rgb(99.607843%,99.607843%,99.607843%);fill-opacity:1;" d="M 4.808594 23.414062 L 5.144531 23.449219 L 5.820312 23.683594 L 6.902344 24.125 L 8.019531 24.628906 L 9.304688 25.269531 L 10.082031 25.707031 L 10.789062 26.109375 L 11.566406 26.582031 L 12.480469 27.1875 L 13.964844 28.164062 L 14.710938 28.636719 L 15.792969 29.277344 L 16.5 29.683594 L 17.109375 30.019531 L 18.191406 30.59375 L 19.542969 31.265625 L 20.65625 31.769531 L 21.804688 32.277344 L 22.957031 32.75 L 23.394531 32.984375 L 23.460938 33.1875 L 23.160156 33.421875 L 22.617188 33.757812 L 21.839844 34.128906 L 20.894531 34.5 L 20.050781 34.769531 L 19.238281 34.972656 L 18.324219 35.140625 L 17.445312 35.242188 L 17.007812 35.273438 L 15.691406 35.273438 L 14.878906 35.207031 L 13.898438 35.074219 L 10.757812 34.433594 L 9.539062 34.195312 L 8.796875 33.996094 L 8.152344 33.757812 L 7.613281 33.488281 L 7.140625 33.21875 L 6.734375 32.917969 L 6.328125 32.546875 L 5.890625 32.109375 L 5.519531 31.601562 L 5.214844 31.097656 L 4.875 30.390625 L 4.640625 29.75 L 4.402344 28.839844 L 4.234375 27.929688 L 4.132812 27.085938 L 4.097656 26.546875 L 4.097656 25.132812 L 4.132812 24.664062 L 4.269531 24.089844 L 4.4375 23.683594 L 4.570312 23.515625 Z M 4.808594 23.414062 "/>
<path style=" stroke:none;fill-rule:nonzero;fill:rgb(99.607843%,99.607843%,99.607843%);fill-opacity:1;" d="M 24.644531 34.398438 L 24.679688 34.398438 L 24.710938 36.050781 L 24.710938 37.53125 L 24.679688 38.945312 L 24.511719 39.386719 L 24.070312 40.058594 L 23.765625 40.5625 L 23.496094 41.101562 L 23.328125 41.542969 L 23.226562 41.945312 L 23.160156 42.6875 L 22.957031 43.226562 L 22.855469 43.191406 L 22.449219 42.652344 L 22.109375 42.214844 L 21.804688 41.710938 L 21.535156 41.171875 L 21.332031 40.496094 L 21.300781 40.328125 L 21.300781 39.789062 L 21.433594 39.453125 L 21.738281 39.117188 L 22.109375 38.644531 L 22.414062 38.105469 L 22.652344 37.566406 L 23.089844 36.285156 L 23.292969 35.914062 L 23.664062 35.511719 L 24.070312 35.140625 L 24.339844 34.804688 L 24.613281 34.433594 Z M 24.644531 34.398438 "/>
<path style=" stroke:none;fill-rule:nonzero;fill:rgb(99.607843%,99.607843%,99.607843%);fill-opacity:1;" d="M 25.625 34.9375 L 26.03125 35.140625 L 26.46875 35.511719 L 26.707031 35.78125 L 27.011719 36.25 L 27.28125 36.859375 L 27.6875 37.96875 L 27.957031 38.507812 L 28.292969 38.945312 L 28.597656 39.285156 L 28.835938 39.757812 L 28.871094 39.890625 L 28.871094 40.496094 L 28.734375 40.96875 L 28.429688 41.640625 L 28.09375 42.25 L 27.550781 43.058594 L 27.179688 43.5625 L 27.113281 43.53125 L 27.011719 42.820312 L 26.976562 42.113281 L 26.839844 41.507812 L 26.640625 40.96875 L 26.367188 40.496094 L 25.996094 39.957031 L 25.761719 39.554688 L 25.558594 38.945312 L 25.488281 38.542969 L 25.488281 37.667969 L 25.523438 35.410156 L 25.589844 35.003906 Z M 25.625 34.9375 "/>
</g>
</svg>
